<?xml version="1.0" encoding="utf-8"?>
<!-- Generator: Adobe Illustrator 28.0.0, SVG Export Plug-In . SVG Version: 6.00 Build 0)  -->
<svg version="1.1" id="Livello_1" xmlns="http://www.w3.org/2000/svg" xmlns:xlink="http://www.w3.org/1999/xlink" x="0px" y="0px"
	 viewBox="0 0 1000 1000" style="enable-background:new 0 0 1000 1000;" xml:space="preserve">
<style type="text/css">
	.st0{opacity:0.35;fill:#191923;}
	.st1{fill:none;stroke:#191923;stroke-width:14.1732;stroke-miterlimit:10;}
	.st2{opacity:0.35;fill:#899494;}
	.st3{fill:none;stroke:#899494;stroke-width:14.1732;stroke-miterlimit:10;}
	.st4{opacity:0.35;fill:#D52941;}
	.st5{fill:none;stroke:#D52941;stroke-width:14.1732;stroke-miterlimit:10;}
	.st6{fill:#FFFFFF;}
	.st7{fill:#ACB9B9;}
	.st8{fill:#D52941;}
	.st9{fill:#F7CB15;}
	.st10{fill:#96E6B3;}
	.st11{fill:none;stroke:#191923;stroke-width:2.8346;stroke-linecap:round;stroke-miterlimit:10;}
	.st12{fill:#191923;}
	.st13{fill:none;stroke:#96E6B3;stroke-width:14.1732;stroke-linecap:round;stroke-miterlimit:10;}
	.st14{fill:none;stroke:#000000;stroke-width:2.8346;stroke-linecap:round;stroke-miterlimit:10;}
	.st15{fill:none;stroke:#96E6B3;stroke-width:2.8346;stroke-linecap:round;stroke-miterlimit:10;}
	.st16{opacity:0.35;fill:#96E6B3;stroke:#96E6B3;stroke-width:14.1732;stroke-miterlimit:10;}
	.st17{fill:none;stroke:#96E6B3;stroke-width:14.1732;stroke-miterlimit:10;}
	.st18{font-family:'MyriadPro-Regular';}
	.st19{font-size:12px;}
	.st20{opacity:0.35;fill:#E09F3E;}
	.st21{fill:none;stroke:#E09F3E;stroke-width:14.1732;stroke-miterlimit:10;}
</style>
<g id="Livello_1_00000023259287150976266600000005052077008008726939_">
</g>
<g>
	<path class="st0" d="M887.5,769.2H784.1c-5.5,0-10-4.5-10-10v-33.7c0-5.5,4.5-10,10-10h103.4c5.5,0,10,4.5,10,10v33.7
		C897.5,764.8,893,769.2,887.5,769.2z"/>
	<path class="st1" d="M887.5,769.2H784.1c-5.5,0-10-4.5-10-10v-33.7c0-5.5,4.5-10,10-10h103.4c5.5,0,10,4.5,10,10v33.7
		C897.5,764.8,893,769.2,887.5,769.2z"/>
</g>
<g>
	<path class="st2" d="M533.3,873.4H429.9c-5.5,0-10-4.5-10-10v-33.7c0-5.5,4.5-10,10-10h103.4c5.5,0,10,4.5,10,10v33.7
		C543.3,869,538.8,873.4,533.3,873.4z"/>
	<path class="st3" d="M533.3,873.4H429.9c-5.5,0-10-4.5-10-10v-33.7c0-5.5,4.5-10,10-10h103.4c5.5,0,10,4.5,10,10v33.7
		C543.3,869,538.8,873.4,533.3,873.4z"/>
</g>
<g>
	<path class="st4" d="M543.9,462.5H440.5c-5.5,0-10-4.5-10-10v-33.7c0-5.5,4.5-10,10-10h103.4c5.5,0,10,4.5,10,10v33.7
		C553.9,458.1,549.4,462.5,543.9,462.5z"/>
	<path class="st5" d="M543.9,462.5H440.5c-5.5,0-10-4.5-10-10v-33.7c0-5.5,4.5-10,10-10h103.4c5.5,0,10,4.5,10,10v33.7
		C553.9,458.1,549.4,462.5,543.9,462.5z"/>
</g>
<g id="Graphic-elements">
	<g>
		<g>
			
				<image style="overflow:visible;opacity:0.1;enable-background:new    ;" width="346" height="326" xlink:href="64A0BA2AF0E687B0.png"  transform="matrix(1 0 0 1 371 489)">
			</image>
			<g>
				<path class="st6" d="M646.7,724.1H441.9c-5.5,0-10-4.5-10-10V529.5c0-5.5,4.5-10,10-10h204.8c5.5,0,10,4.5,10,10v184.6
					C656.7,719.6,652.3,724.1,646.7,724.1z"/>
			</g>
		</g>
		<path class="st7" d="M656.7,569.5H431.9v-40c0-5.5,4.5-10,10-10h204.8c5.5,0,10,4.5,10,10V569.5z"/>
		<g>
			<circle class="st8" cx="462" cy="545" r="8.6"/>
			<circle class="st9" cx="492.5" cy="545" r="8.6"/>
			<circle class="st10" cx="523" cy="545" r="8.6"/>
		</g>
		<line class="st11" x1="452.8" y1="590.7" x2="635.9" y2="590.7"/>
		<line class="st11" x1="452.8" y1="607.2" x2="635.9" y2="607.2"/>
		<line class="st11" x1="452.8" y1="623.7" x2="635.9" y2="623.7"/>
		<line class="st11" x1="452.8" y1="640.2" x2="586.2" y2="640.2"/>
		<line class="st11" x1="452.8" y1="656.7" x2="548.8" y2="656.7"/>
		<path class="st10" d="M630.9,704.1h-68.2c-2.8,0-5-2.2-5-5v-17.3c0-2.8,2.2-5,5-5h68.2c2.8,0,5,2.2,5,5v17.3
			C635.9,701.8,633.6,704.1,630.9,704.1z"/>
		<g>
			<g>
				<path class="st12" d="M569.6,695.6c-1,0-1.8-0.1-2.5-0.4c-0.7-0.3-1.2-0.7-1.5-1.2s-0.5-1-0.6-1.5c0-0.1,0-0.2,0.1-0.2
					c0.1-0.1,0.1-0.1,0.2-0.1h1.4c0.1,0,0.2,0,0.3,0.1s0.1,0.1,0.2,0.2c0.1,0.2,0.2,0.4,0.4,0.6c0.2,0.2,0.4,0.4,0.7,0.5
					s0.7,0.2,1.2,0.2c0.8,0,1.3-0.1,1.7-0.4c0.4-0.3,0.6-0.6,0.6-1c0-0.3-0.1-0.6-0.3-0.7c-0.2-0.2-0.5-0.4-0.9-0.5
					c-0.4-0.2-1-0.3-1.7-0.5c-0.8-0.2-1.5-0.4-2-0.7s-0.9-0.6-1.2-1s-0.4-0.9-0.4-1.6c0-0.6,0.2-1.2,0.5-1.6
					c0.3-0.5,0.8-0.9,1.4-1.1s1.4-0.4,2.2-0.4c0.7,0,1.3,0.1,1.8,0.3s1,0.4,1.3,0.7c0.4,0.3,0.6,0.6,0.8,1s0.3,0.7,0.3,1
					c0,0.1,0,0.2-0.1,0.2s-0.1,0.1-0.2,0.1h-1.5c-0.1,0-0.2,0-0.3-0.1c-0.1,0-0.2-0.1-0.2-0.2c-0.1-0.3-0.3-0.6-0.6-0.8
					s-0.8-0.4-1.4-0.4c-0.6,0-1,0.1-1.4,0.3s-0.5,0.5-0.5,1c0,0.3,0.1,0.5,0.3,0.7s0.5,0.4,0.8,0.5s0.9,0.3,1.5,0.5
					c0.9,0.2,1.6,0.4,2.2,0.7c0.6,0.3,1,0.6,1.3,1s0.4,0.9,0.4,1.6c0,0.7-0.2,1.3-0.6,1.8c-0.4,0.5-0.9,0.9-1.6,1.1
					S570.5,695.6,569.6,695.6z"/>
				<path class="st12" d="M579.3,695.6c-1.2,0-2.1-0.3-2.8-1s-1.1-1.7-1.1-2.9c0-0.1,0-0.2,0-0.4s0-0.3,0-0.4c0-0.8,0.2-1.5,0.6-2.1
					s0.8-1,1.4-1.4c0.6-0.3,1.3-0.5,2-0.5c0.9,0,1.6,0.2,2.2,0.5c0.6,0.4,1,0.9,1.3,1.5s0.4,1.4,0.4,2.2v0.3c0,0.1,0,0.2-0.1,0.3
					s-0.2,0.1-0.3,0.1h-5.3c0,0.1,0,0.1,0,0.1c0,0.4,0.1,0.7,0.2,1c0.1,0.3,0.3,0.6,0.6,0.8s0.6,0.3,0.9,0.3c0.3,0,0.5,0,0.8-0.1
					c0.2-0.1,0.4-0.2,0.5-0.3s0.2-0.2,0.3-0.3s0.2-0.2,0.2-0.2s0.1,0,0.3,0h1.4c0.1,0,0.2,0,0.3,0.1s0.1,0.1,0.1,0.2
					c0,0.2-0.1,0.4-0.3,0.6c-0.2,0.2-0.4,0.5-0.7,0.7s-0.7,0.4-1.2,0.6C580.5,695.5,579.9,695.6,579.3,695.6z M577.6,690.6h3.5l0,0
					c0-0.4-0.1-0.8-0.2-1.1c-0.1-0.3-0.3-0.6-0.6-0.7s-0.6-0.3-1-0.3s-0.7,0.1-1,0.3s-0.5,0.4-0.6,0.7
					C577.6,689.8,577.6,690.1,577.6,690.6L577.6,690.6z"/>
				<path class="st12" d="M585.4,695.5c-0.1,0-0.2,0-0.3-0.1s-0.1-0.2-0.1-0.3v-7.6c0-0.1,0-0.2,0.1-0.3s0.2-0.1,0.3-0.1h1.3
					c0.1,0,0.2,0,0.3,0.1s0.1,0.2,0.1,0.3v0.7c0.3-0.3,0.6-0.6,1.1-0.9c0.4-0.2,1-0.3,1.6-0.3c0.7,0,1.2,0.1,1.7,0.4
					c0.5,0.3,0.9,0.7,1.1,1.2c0.3,0.5,0.4,1.2,0.4,1.9v4.5c0,0.1,0,0.2-0.1,0.3s-0.2,0.1-0.3,0.1h-1.4c-0.1,0-0.2,0-0.3-0.1
					s-0.1-0.2-0.1-0.3v-4.4c0-0.6-0.2-1.1-0.5-1.5s-0.7-0.5-1.3-0.5s-1,0.2-1.3,0.5c-0.3,0.4-0.5,0.8-0.5,1.5v4.4
					c0,0.1,0,0.2-0.1,0.3s-0.2,0.1-0.3,0.1L585.4,695.5L585.4,695.5z"/>
				<path class="st12" d="M598.1,695.6c-0.6,0-1-0.1-1.5-0.3c-0.4-0.2-0.8-0.5-1-0.8s-0.5-0.7-0.6-1.2s-0.2-1-0.3-1.5
					c0-0.2,0-0.4,0-0.5s0-0.3,0-0.5c0-0.5,0.1-1,0.2-1.5c0.1-0.5,0.4-0.9,0.6-1.2c0.3-0.3,0.6-0.6,1.1-0.8c0.4-0.2,0.9-0.3,1.5-0.3
					s1.1,0.1,1.5,0.3s0.7,0.5,1,0.8v-3.6c0-0.1,0-0.2,0.1-0.3s0.2-0.1,0.3-0.1h1.4c0.1,0,0.2,0,0.3,0.1s0.1,0.2,0.1,0.3v10.6
					c0,0.1,0,0.2-0.1,0.3s-0.2,0.1-0.3,0.1H601c-0.1,0-0.2,0-0.3-0.1s-0.1-0.2-0.1-0.3v-0.6c-0.3,0.3-0.6,0.6-1,0.8
					S598.7,695.6,598.1,695.6z M598.6,693.9c0.4,0,0.8-0.1,1.1-0.3s0.5-0.5,0.6-0.8s0.2-0.6,0.2-1c0-0.2,0-0.4,0-0.6s0-0.4,0-0.6
					c0-0.3-0.1-0.6-0.2-0.9c-0.1-0.3-0.3-0.5-0.6-0.7s-0.6-0.3-1-0.3s-0.8,0.1-1.1,0.3s-0.5,0.5-0.6,0.8s-0.2,0.7-0.2,1.1
					c0,0.3,0,0.6,0,1s0.1,0.7,0.2,1.1c0.1,0.3,0.3,0.6,0.6,0.8C597.8,693.8,598.2,693.9,598.6,693.9z"/>
				<path class="st12" d="M613,695.6c-1,0-1.8-0.2-2.5-0.5s-1.2-0.8-1.6-1.5c-0.4-0.6-0.6-1.4-0.6-2.3c0-0.4,0-0.9,0-1.4s0-1,0-1.4
					c0-0.9,0.2-1.7,0.6-2.3c0.4-0.7,0.9-1.1,1.6-1.5c0.7-0.3,1.5-0.5,2.5-0.5c0.7,0,1.4,0.1,2,0.3s1.1,0.5,1.5,0.8s0.7,0.7,0.9,1.2
					c0.2,0.4,0.3,0.9,0.4,1.5c0,0.1,0,0.2-0.1,0.2c-0.1,0.1-0.2,0.1-0.2,0.1H616c-0.1,0-0.2,0-0.3-0.1s-0.1-0.2-0.2-0.3
					c-0.2-0.7-0.5-1.2-0.9-1.4c-0.4-0.3-0.9-0.4-1.6-0.4c-0.7,0-1.3,0.2-1.7,0.6c-0.4,0.4-0.7,1.1-0.7,2s0,1.8,0,2.7s0.3,1.6,0.7,2
					s1,0.6,1.7,0.6c0.6,0,1.1-0.1,1.6-0.4c0.4-0.3,0.7-0.7,0.9-1.4c0-0.1,0.1-0.3,0.2-0.3c0.1-0.1,0.2-0.1,0.3-0.1h1.5
					c0.1,0,0.2,0,0.2,0.1c0.1,0.1,0.1,0.1,0.1,0.2c0,0.5-0.1,1-0.4,1.5c-0.2,0.4-0.5,0.8-0.9,1.2s-0.9,0.6-1.5,0.8
					C614.3,695.5,613.7,695.6,613,695.6z"/>
				<path class="st12" d="M622.8,695.5c-0.2,0-0.3,0-0.4-0.1c-0.1-0.1-0.2-0.2-0.2-0.3l-3.4-10.3c0-0.1,0-0.1,0-0.1
					c0-0.1,0-0.2,0.1-0.2c0.1-0.1,0.1-0.1,0.2-0.1h1.4c0.1,0,0.3,0,0.3,0.1s0.1,0.2,0.2,0.2l2.7,8.2l2.7-8.2c0-0.1,0.1-0.2,0.2-0.2
					s0.2-0.1,0.3-0.1h1.4c0.1,0,0.2,0,0.2,0.1c0.1,0.1,0.1,0.1,0.1,0.2v0.1l-3.4,10.3c0,0.1-0.1,0.2-0.2,0.3
					c-0.1,0.1-0.2,0.1-0.4,0.1H622.8z"/>
			</g>
		</g>
	</g>
	<g>
		
			<image style="overflow:visible;opacity:0.1;enable-background:new    ;" width="761" height="501" xlink:href="64A0BA2AF0E687B1.png"  transform="matrix(1 0 0 1 -15 15)">
		</image>
		<g>
			<path class="st6" d="M675.1,425.1H55.9c-5.5,0-10-4.5-10-10V55.9c0-5.5,4.5-10,10-10h619.2c5.5,0,10,4.5,10,10v359.2
				C685.1,420.6,680.6,425.1,675.1,425.1z"/>
		</g>
	</g>
	<path class="st7" d="M685.1,95.9H45.9v-40c0-5.5,4.5-10,10-10h619.2c5.5,0,10,4.5,10,10L685.1,95.9L685.1,95.9z"/>
	<g>
		
			<image style="overflow:visible;opacity:0.1;enable-background:new    ;" width="538" height="501" xlink:href="64A0BA2AF0E687B2.png"  transform="matrix(1 0 0 1 -15 537)">
		</image>
		<g>
			<path class="st6" d="M452.6,947H55.9c-5.5,0-10-4.5-10-10V577.8c0-5.5,4.5-10,10-10h396.7c5.5,0,10,4.5,10,10V937
				C462.6,942.6,458.1,947,452.6,947z"/>
		</g>
	</g>
	<g>
		<circle class="st8" cx="73" cy="71.4" r="8.6"/>
		<circle class="st9" cx="103.5" cy="71.4" r="8.6"/>
		<circle class="st10" cx="134" cy="71.4" r="8.6"/>
	</g>
	<path class="st10" d="M573.3,288.4h-410c-2.8,0-5-2.2-5-5v-37.3c0-2.8,2.2-5,5-5h410.1c2.8,0,5,2.2,5,5v37.3
		C578.3,286.2,576.1,288.4,573.3,288.4z"/>
	<path class="st7" d="M462.6,617.8H45.9v-40c0-5.5,4.5-10,10-10h396.7c5.5,0,10,4.5,10,10V617.8z"/>
	<g>
		<g>
			<path class="st12" d="M273.9,311.9c-0.2,0-0.4-0.1-0.5-0.2s-0.2-0.3-0.2-0.4l-2.4-12.8v-0.1c0,0,0,0,0-0.1s0-0.2,0.1-0.3
				c0.1-0.1,0.2-0.1,0.3-0.1h1.8c0.3,0,0.5,0.1,0.6,0.4l1.7,9.1l1.8-5.9c0-0.1,0.1-0.2,0.2-0.3s0.2-0.2,0.5-0.2h1.1
				c0.2,0,0.4,0.1,0.5,0.2s0.2,0.2,0.2,0.3l1.8,5.8l1.7-9c0-0.3,0.2-0.4,0.6-0.4h1.8c0.1,0,0.2,0,0.3,0.1s0.1,0.2,0.1,0.3
				c0,0,0,0,0,0.1v0.1l-2.4,12.8c0,0.2-0.1,0.3-0.2,0.4s-0.3,0.2-0.5,0.2h-1.3c-0.2,0-0.4-0.1-0.5-0.2s-0.2-0.2-0.2-0.3l-2.2-6.7
				l-2.2,6.7c-0.1,0.1-0.1,0.2-0.2,0.3c-0.1,0.1-0.3,0.2-0.5,0.2H273.9z"/>
			<path class="st12" d="M292.2,312.1c-1.5,0-2.7-0.4-3.5-1.3c-0.9-0.9-1.3-2.1-1.4-3.6c0-0.1,0-0.3,0-0.5s0-0.4,0-0.5
				c0.1-1,0.3-1.9,0.7-2.6s1-1.3,1.7-1.7c0.7-0.4,1.6-0.6,2.5-0.6c1.1,0,2,0.2,2.7,0.7c0.7,0.4,1.3,1.1,1.7,1.9
				c0.4,0.8,0.6,1.7,0.6,2.8v0.4c0,0.1,0,0.2-0.1,0.3c-0.1,0.1-0.2,0.1-0.4,0.1H290c0,0.1,0,0.1,0,0.2c0,0.5,0.1,0.9,0.3,1.3
				c0.2,0.4,0.4,0.7,0.7,1c0.3,0.2,0.7,0.4,1.2,0.4c0.4,0,0.7-0.1,0.9-0.2c0.3-0.1,0.5-0.2,0.6-0.4c0.2-0.1,0.3-0.3,0.3-0.4
				c0.1-0.2,0.2-0.3,0.3-0.3c0.1,0,0.2,0,0.3,0h1.7c0.1,0,0.2,0,0.3,0.1c0.1,0.1,0.1,0.2,0.1,0.3c0,0.2-0.1,0.5-0.3,0.8
				c-0.2,0.3-0.5,0.6-0.9,0.9s-0.9,0.5-1.5,0.7C293.6,312,292.9,312.1,292.2,312.1z M290,305.8h4.4v-0.1c0-0.5-0.1-1-0.3-1.4
				s-0.4-0.7-0.8-0.9c-0.3-0.2-0.7-0.3-1.2-0.3s-0.9,0.1-1.2,0.3c-0.3,0.2-0.6,0.5-0.8,0.9C290.1,304.8,290,305.2,290,305.8
				L290,305.8z"/>
			<path class="st12" d="M306.7,311.9c-0.2,0-0.3,0-0.4-0.1s-0.2-0.2-0.2-0.4l-2.9-9.3c0-0.1,0-0.1,0-0.2s0-0.2,0.1-0.3
				c0.1-0.1,0.2-0.1,0.3-0.1h1.5c0.2,0,0.3,0,0.4,0.1s0.1,0.2,0.2,0.2l2,6.6l2.1-6.6c0-0.1,0.1-0.2,0.2-0.3s0.2-0.1,0.4-0.1h1
				c0.2,0,0.3,0,0.4,0.1s0.2,0.2,0.2,0.3l2.1,6.6l2-6.6c0-0.1,0.1-0.2,0.2-0.2c0.1-0.1,0.2-0.1,0.4-0.1h1.5c0.1,0,0.2,0,0.3,0.1
				c0.1,0.1,0.1,0.2,0.1,0.3c0,0.1,0,0.1,0,0.2l-2.9,9.3c0,0.1-0.1,0.3-0.2,0.4s-0.2,0.1-0.4,0.1h-1.3c-0.2,0-0.3,0-0.4-0.1
				s-0.2-0.2-0.2-0.4l-2.1-6.3l-2.1,6.3c-0.1,0.1-0.1,0.3-0.2,0.4s-0.2,0.1-0.5,0.1H306.7z"/>
			<path class="st12" d="M320.6,299.8c-0.1,0-0.3,0-0.4-0.1s-0.1-0.2-0.1-0.4v-1.4c0-0.1,0-0.2,0.1-0.3c0.1-0.1,0.2-0.1,0.4-0.1h1.8
				c0.1,0,0.3,0,0.4,0.1s0.1,0.2,0.1,0.3v1.4c0,0.1,0,0.3-0.1,0.4s-0.2,0.1-0.4,0.1H320.6z M320.7,311.9c-0.1,0-0.2,0-0.3-0.1
				c-0.1-0.1-0.1-0.2-0.1-0.3V302c0-0.1,0-0.2,0.1-0.3s0.2-0.1,0.3-0.1h1.7c0.1,0,0.3,0,0.4,0.1s0.1,0.2,0.1,0.3v9.4
				c0,0.1,0,0.2-0.1,0.3c-0.1,0.1-0.2,0.1-0.4,0.1h-1.7V311.9z"/>
			<path class="st12" d="M326,311.9c-0.1,0-0.2,0-0.3-0.1c-0.1-0.1-0.1-0.2-0.1-0.3v-13.2c0-0.1,0-0.2,0.1-0.3s0.2-0.1,0.3-0.1h1.7
				c0.1,0,0.2,0,0.3,0.1s0.1,0.2,0.1,0.3v13.2c0,0.1,0,0.2-0.1,0.3c-0.1,0.1-0.2,0.1-0.3,0.1H326z"/>
			<path class="st12" d="M331.3,311.9c-0.1,0-0.2,0-0.3-0.1c-0.1-0.1-0.1-0.2-0.1-0.3v-13.2c0-0.1,0-0.2,0.1-0.3s0.2-0.1,0.3-0.1
				h1.7c0.1,0,0.2,0,0.3,0.1s0.1,0.2,0.1,0.3v13.2c0,0.1,0,0.2-0.1,0.3c-0.1,0.1-0.2,0.1-0.3,0.1H331.3z"/>
			<path class="st12" d="M345.4,316.3c-1,0-1.8-0.1-2.4-0.4s-1.1-0.6-1.5-0.9c-0.4-0.4-0.6-0.7-0.8-1.1c-0.2-0.4-0.2-0.6-0.2-0.8
				c0-0.1,0-0.2,0.1-0.4s0.2-0.1,0.4-0.1h1.7c0.1,0,0.2,0,0.3,0.1s0.1,0.2,0.2,0.3c0.1,0.2,0.2,0.4,0.3,0.6c0.1,0.2,0.3,0.4,0.6,0.5
				c0.3,0.1,0.6,0.2,1.1,0.2s0.9-0.1,1.3-0.2c0.3-0.1,0.6-0.4,0.8-0.7c0.2-0.3,0.3-0.8,0.3-1.4v-1.4c-0.3,0.4-0.7,0.7-1.2,0.9
				c-0.5,0.2-1.1,0.4-1.8,0.4c-0.7,0-1.3-0.1-1.9-0.4c-0.5-0.2-1-0.6-1.3-1s-0.6-0.9-0.8-1.5s-0.3-1.2-0.3-1.9c0-0.4,0-0.7,0-1.1
				c0-0.7,0.1-1.3,0.3-1.9c0.2-0.6,0.4-1.1,0.8-1.5s0.8-0.8,1.3-1s1.1-0.4,1.9-0.4s1.4,0.1,1.9,0.4s0.9,0.6,1.3,1.1V302
				c0-0.1,0-0.3,0.1-0.4s0.2-0.1,0.3-0.1h1.6c0.1,0,0.2,0,0.3,0.1s0.1,0.2,0.1,0.4v9.6c0,1-0.2,1.8-0.5,2.5
				c-0.4,0.7-0.9,1.2-1.6,1.6C347.4,316.1,346.5,316.3,345.4,316.3z M345.3,309.7c0.5,0,1-0.1,1.3-0.4c0.3-0.2,0.6-0.6,0.7-0.9
				s0.3-0.8,0.3-1.2c0-0.2,0-0.4,0-0.7s0-0.5,0-0.6c0-0.4-0.1-0.8-0.3-1.2s-0.4-0.7-0.7-0.9c-0.3-0.2-0.8-0.4-1.3-0.4
				s-1,0.1-1.3,0.4c-0.3,0.2-0.6,0.6-0.7,1s-0.2,0.8-0.2,1.3c0,0.3,0,0.6,0,1c0,0.5,0.1,0.9,0.2,1.3s0.4,0.7,0.7,1
				C344.3,309.6,344.7,309.7,345.3,309.7z"/>
			<path class="st12" d="M357.5,312.1c-1.5,0-2.7-0.4-3.5-1.3c-0.9-0.9-1.3-2.1-1.4-3.6c0-0.1,0-0.3,0-0.5s0-0.4,0-0.5
				c0.1-1,0.3-1.9,0.7-2.6s1-1.3,1.7-1.7c0.7-0.4,1.6-0.6,2.5-0.6c1.1,0,2,0.2,2.7,0.7c0.7,0.4,1.3,1.1,1.7,1.9
				c0.4,0.8,0.6,1.7,0.6,2.8v0.4c0,0.1,0,0.2-0.1,0.3c-0.1,0.1-0.2,0.1-0.4,0.1h-6.6c0,0.1,0,0.1,0,0.2c0,0.5,0.1,0.9,0.3,1.3
				c0.2,0.4,0.4,0.7,0.7,1c0.3,0.2,0.7,0.4,1.2,0.4c0.4,0,0.7-0.1,0.9-0.2c0.3-0.1,0.5-0.2,0.6-0.4c0.2-0.1,0.3-0.3,0.3-0.4
				c0.1-0.2,0.2-0.3,0.3-0.3c0.1,0,0.2,0,0.3,0h1.7c0.1,0,0.2,0,0.3,0.1c0.1,0.1,0.1,0.2,0.1,0.3c0,0.2-0.1,0.5-0.3,0.8
				c-0.2,0.3-0.5,0.6-0.9,0.9s-0.9,0.5-1.5,0.7C358.9,312,358.2,312.1,357.5,312.1z M355.3,305.8h4.4v-0.1c0-0.5-0.1-1-0.3-1.4
				s-0.4-0.7-0.8-0.9c-0.3-0.2-0.7-0.3-1.2-0.3s-0.9,0.1-1.2,0.3c-0.3,0.2-0.6,0.5-0.8,0.9C355.4,304.8,355.3,305.2,355.3,305.8
				L355.3,305.8z"/>
			<path class="st12" d="M369.2,311.9c-0.8,0-1.5-0.1-2-0.4s-1-0.7-1.2-1.2s-0.4-1.2-0.4-2.1v-4.5H364c-0.1,0-0.2,0-0.3-0.1
				s-0.1-0.2-0.1-0.3V302c0-0.1,0-0.2,0.1-0.3s0.2-0.1,0.3-0.1h1.6v-3.3c0-0.1,0-0.2,0.1-0.3c0.1-0.1,0.2-0.1,0.4-0.1h1.6
				c0.1,0,0.2,0,0.3,0.1s0.1,0.2,0.1,0.3v3.3h2.5c0.1,0,0.2,0,0.3,0.1s0.1,0.2,0.1,0.3v1.2c0,0.1,0,0.2-0.1,0.3s-0.2,0.1-0.3,0.1
				h-2.5v4.3c0,0.5,0.1,1,0.3,1.3c0.2,0.3,0.5,0.5,1,0.5h1.4c0.1,0,0.2,0,0.3,0.1s0.1,0.2,0.1,0.3v1.2c0,0.1,0,0.2-0.1,0.3
				c-0.1,0.1-0.2,0.1-0.3,0.1h-1.6V311.9z"/>
			<path class="st12" d="M378.1,299.8c-0.1,0-0.3,0-0.4-0.1s-0.1-0.2-0.1-0.4v-1.4c0-0.1,0-0.2,0.1-0.3c0.1-0.1,0.2-0.1,0.4-0.1h1.8
				c0.1,0,0.3,0,0.4,0.1s0.1,0.2,0.1,0.3v1.4c0,0.1,0,0.3-0.1,0.4s-0.2,0.1-0.4,0.1H378.1z M378.2,311.9c-0.1,0-0.2,0-0.3-0.1
				c-0.1-0.1-0.1-0.2-0.1-0.3V302c0-0.1,0-0.2,0.1-0.3s0.2-0.1,0.3-0.1h1.7c0.1,0,0.3,0,0.4,0.1s0.1,0.2,0.1,0.3v9.4
				c0,0.1,0,0.2-0.1,0.3c-0.1,0.1-0.2,0.1-0.4,0.1h-1.7V311.9z"/>
			<path class="st12" d="M383.5,311.9c-0.1,0-0.2,0-0.3-0.1c-0.1-0.1-0.1-0.2-0.1-0.3V302c0-0.1,0-0.2,0.1-0.3s0.2-0.1,0.3-0.1h1.6
				c0.1,0,0.2,0,0.3,0.1s0.1,0.2,0.1,0.3v0.8c0.3-0.4,0.8-0.8,1.3-1.1s1.2-0.4,2-0.4s1.5,0.2,2.1,0.6s1.1,0.9,1.4,1.5
				c0.3,0.7,0.5,1.5,0.5,2.4v5.6c0,0.1,0,0.2-0.1,0.3c-0.1,0.1-0.2,0.1-0.3,0.1h-1.8c-0.1,0-0.2,0-0.3-0.1c-0.1-0.1-0.1-0.2-0.1-0.3
				v-5.5c0-0.8-0.2-1.4-0.6-1.8s-0.9-0.7-1.7-0.7c-0.7,0-1.2,0.2-1.7,0.7c-0.4,0.4-0.6,1-0.6,1.8v5.5c0,0.1,0,0.2-0.1,0.3
				c-0.1,0.1-0.2,0.1-0.3,0.1h-1.7V311.9z"/>
			<path class="st12" d="M404.7,311.9c-0.8,0-1.5-0.1-2-0.4s-1-0.7-1.2-1.2s-0.4-1.2-0.4-2.1v-4.5h-1.6c-0.1,0-0.2,0-0.3-0.1
				s-0.1-0.2-0.1-0.3V302c0-0.1,0-0.2,0.1-0.3s0.2-0.1,0.3-0.1h1.6v-3.3c0-0.1,0-0.2,0.1-0.3c0.1-0.1,0.2-0.1,0.4-0.1h1.6
				c0.1,0,0.2,0,0.3,0.1s0.1,0.2,0.1,0.3v3.3h2.5c0.1,0,0.2,0,0.3,0.1s0.1,0.2,0.1,0.3v1.2c0,0.1,0,0.2-0.1,0.3s-0.2,0.1-0.3,0.1
				h-2.5v4.3c0,0.5,0.1,1,0.3,1.3c0.2,0.3,0.5,0.5,1,0.5h1.4c0.1,0,0.2,0,0.3,0.1s0.1,0.2,0.1,0.3v1.2c0,0.1,0,0.2-0.1,0.3
				c-0.1,0.1-0.2,0.1-0.3,0.1h-1.6V311.9z"/>
			<path class="st12" d="M413.2,312.1c-1.1,0-2-0.2-2.7-0.6s-1.3-0.9-1.7-1.6c-0.4-0.7-0.6-1.5-0.6-2.4c0-0.2,0-0.5,0-0.9
				c0-0.3,0-0.6,0-0.9c0.1-0.9,0.3-1.7,0.7-2.4c0.4-0.7,1-1.2,1.7-1.6s1.6-0.6,2.6-0.6s1.9,0.2,2.6,0.6s1.3,0.9,1.7,1.6
				c0.4,0.7,0.6,1.5,0.7,2.4c0,0.2,0,0.5,0,0.9c0,0.3,0,0.6,0,0.9c-0.1,0.9-0.3,1.7-0.6,2.4s-0.9,1.2-1.7,1.6
				S414.3,312.1,413.2,312.1z M413.2,310.1c0.7,0,1.3-0.2,1.6-0.7c0.4-0.4,0.6-1.1,0.6-2c0-0.2,0-0.5,0-0.8s0-0.6,0-0.8
				c0-0.9-0.3-1.5-0.6-2c-0.4-0.5-0.9-0.7-1.6-0.7s-1.3,0.2-1.6,0.7c-0.4,0.5-0.6,1.1-0.6,2c0,0.2,0,0.5,0,0.8s0,0.6,0,0.8
				c0,0.9,0.3,1.5,0.6,2C412,309.9,412.5,310.1,413.2,310.1z"/>
			<path class="st12" d="M424.3,312.1c-0.8,0-1.5-0.2-2.1-0.6s-1-0.9-1.4-1.6c-0.3-0.7-0.5-1.5-0.5-2.4V302c0-0.1,0-0.2,0.1-0.3
				s0.2-0.1,0.3-0.1h1.8c0.1,0,0.3,0,0.4,0.1s0.1,0.2,0.1,0.3v5.5c0,1.7,0.7,2.5,2.2,2.5c0.7,0,1.2-0.2,1.6-0.7s0.6-1,0.6-1.8V302
				c0-0.1,0-0.2,0.1-0.3s0.2-0.1,0.3-0.1h1.8c0.1,0,0.2,0,0.3,0.1s0.1,0.2,0.1,0.3v9.4c0,0.1,0,0.2-0.1,0.3
				c-0.1,0.1-0.2,0.1-0.3,0.1H428c-0.1,0-0.3,0-0.4-0.1s-0.1-0.2-0.1-0.3v-0.8c-0.4,0.5-0.8,0.8-1.3,1.1
				C425.8,312,425.1,312.1,424.3,312.1z"/>
			<path class="st12" d="M437.4,312.1c-1,0-1.8-0.2-2.5-0.5c-0.7-0.4-1.3-0.9-1.7-1.6c-0.4-0.7-0.6-1.5-0.7-2.5c0-0.2,0-0.5,0-0.8
				s0-0.6,0-0.8c0-1,0.3-1.8,0.7-2.5c0.4-0.7,1-1.2,1.7-1.6s1.6-0.5,2.5-0.5s1.6,0.1,2.2,0.4c0.6,0.2,1.1,0.5,1.5,0.9
				s0.7,0.7,0.9,1.1c0.2,0.4,0.3,0.8,0.3,1.1c0,0.1,0,0.3-0.1,0.4s-0.2,0.1-0.3,0.1H440c-0.1,0-0.2,0-0.3-0.1
				c-0.1-0.1-0.1-0.2-0.2-0.3c-0.2-0.5-0.5-0.9-0.8-1.1s-0.7-0.3-1.2-0.3c-0.7,0-1.2,0.2-1.6,0.6s-0.6,1.1-0.6,2c0,0.5,0,1,0,1.4
				c0,0.9,0.2,1.6,0.6,2s0.9,0.6,1.6,0.6c0.5,0,0.9-0.1,1.3-0.3c0.3-0.2,0.6-0.6,0.8-1.1c0.1-0.1,0.1-0.2,0.2-0.3
				c0.1-0.1,0.2-0.1,0.3-0.1h1.8c0.1,0,0.2,0,0.3,0.1c0.1,0.1,0.1,0.2,0.1,0.4c0,0.2-0.1,0.5-0.2,0.8s-0.3,0.6-0.5,0.9
				s-0.6,0.6-0.9,0.9c-0.4,0.3-0.8,0.5-1.4,0.6S438.1,312.1,437.4,312.1z"/>
			<path class="st12" d="M444.8,311.9c-0.1,0-0.2,0-0.3-0.1c-0.1-0.1-0.1-0.2-0.1-0.3v-13.2c0-0.1,0-0.2,0.1-0.3s0.2-0.1,0.3-0.1
				h1.8c0.1,0,0.3,0,0.4,0.1s0.1,0.2,0.1,0.3v4.6c0.4-0.4,0.8-0.8,1.3-1c0.5-0.3,1.2-0.4,1.9-0.4c0.8,0,1.5,0.2,2.1,0.6
				s1.1,0.9,1.4,1.5c0.3,0.7,0.5,1.5,0.5,2.4v5.6c0,0.1,0,0.2-0.1,0.3c-0.1,0.1-0.2,0.1-0.3,0.1h-1.8c-0.1,0-0.2,0-0.3-0.1
				c-0.1-0.1-0.1-0.2-0.1-0.3v-5.5c0-0.8-0.2-1.4-0.6-1.8s-0.9-0.7-1.6-0.7s-1.2,0.2-1.7,0.7c-0.4,0.4-0.6,1-0.6,1.8v5.5
				c0,0.1,0,0.2-0.1,0.3c-0.1,0.1-0.2,0.1-0.4,0.1h-1.9V311.9z"/>
			<path class="st12" d="M457.3,311.9c-0.1,0-0.3,0-0.4-0.1s-0.1-0.2-0.1-0.3v-1.9c0-0.1,0-0.3,0.1-0.4s0.2-0.1,0.4-0.1h1.9
				c0.1,0,0.3,0,0.4,0.1s0.1,0.2,0.1,0.4v1.9c0,0.1,0,0.2-0.1,0.3c-0.1,0.1-0.2,0.1-0.4,0.1H457.3z M457.4,308c-0.1,0-0.2,0-0.3-0.1
				c-0.1-0.1-0.1-0.2-0.1-0.4v-9.2c0-0.1,0-0.2,0.1-0.3s0.2-0.1,0.3-0.1h1.6c0.1,0,0.3,0,0.4,0.1s0.1,0.2,0.1,0.3v9.2
				c0,0.1,0,0.3-0.1,0.4s-0.2,0.1-0.4,0.1H457.4z"/>
		</g>
	</g>
	<g>
		<circle class="st8" cx="73" cy="592.8" r="8.6"/>
		<circle class="st9" cx="103.5" cy="592.8" r="8.6"/>
		
			<ellipse transform="matrix(3.327788e-02 -0.9994 0.9994 3.327788e-02 -462.9309 706.9987)" class="st10" cx="134" cy="592.8" rx="8.6" ry="8.6"/>
	</g>
	<g>
		<g>
			<path class="st12" d="M177.3,277.1c-0.3,0-0.5-0.1-0.7-0.3c-0.2-0.2-0.3-0.4-0.3-0.7V254h-7.4c-0.3,0-0.5-0.1-0.7-0.3
				s-0.3-0.4-0.3-0.7v-3c0-0.3,0.1-0.5,0.3-0.7s0.4-0.3,0.7-0.3h20.4c0.3,0,0.5,0.1,0.7,0.3s0.3,0.4,0.3,0.7v3
				c0,0.3-0.1,0.5-0.3,0.7s-0.4,0.3-0.7,0.3h-7.4v22.1c0,0.3-0.1,0.5-0.3,0.7s-0.4,0.3-0.7,0.3H177.3z"/>
			<path class="st12" d="M194.9,277.1c-0.3,0-0.5-0.1-0.7-0.3c-0.2-0.2-0.3-0.4-0.3-0.7v-26.5c0-0.3,0.1-0.5,0.3-0.7
				s0.4-0.3,0.7-0.3h3.6c0.3,0,0.5,0.1,0.7,0.3s0.3,0.4,0.3,0.7v9.1c0.7-0.9,1.6-1.5,2.6-2.1c1-0.5,2.3-0.8,3.8-0.8
				c1.6,0,3,0.4,4.3,1.1c1.2,0.7,2.2,1.8,2.8,3.1c0.7,1.3,1,2.9,1,4.8V276c0,0.3-0.1,0.5-0.3,0.7s-0.4,0.3-0.7,0.3h-3.6
				c-0.3,0-0.5-0.1-0.7-0.3c-0.2-0.2-0.3-0.4-0.3-0.7v-11c0-1.5-0.4-2.8-1.1-3.6c-0.8-0.9-1.9-1.3-3.3-1.3c-1.4,0-2.5,0.4-3.3,1.3
				s-1.3,2.1-1.3,3.6v11c0,0.3-0.1,0.5-0.3,0.7s-0.4,0.3-0.7,0.3h-3.5V277.1z"/>
			<path class="st12" d="M225.1,277.5c-1.4,0-2.6-0.3-3.8-0.8s-2-1.3-2.7-2.2s-1-2-1-3.1c0-1.9,0.8-3.4,2.3-4.5s3.5-1.8,6-2.2
				l5.5-0.8v-0.8c0-1.1-0.3-2-0.8-2.6c-0.6-0.6-1.5-0.9-2.9-0.9c-1,0-1.7,0.2-2.3,0.6s-1,0.9-1.3,1.5c-0.2,0.3-0.5,0.5-0.9,0.5H220
				c-0.3,0-0.5-0.1-0.7-0.2c-0.1-0.2-0.2-0.4-0.2-0.6c0-0.4,0.2-0.9,0.5-1.6c0.3-0.6,0.8-1.2,1.5-1.8c0.7-0.6,1.6-1.1,2.7-1.5
				c1.1-0.4,2.4-0.6,4-0.6c1.7,0,3.1,0.2,4.3,0.6s2.1,1,2.8,1.7s1.2,1.5,1.5,2.4s0.5,1.9,0.5,3v12.6c0,0.3-0.1,0.5-0.3,0.7
				s-0.4,0.3-0.7,0.3h-3.2c-0.3,0-0.5-0.1-0.7-0.3c-0.2-0.2-0.3-0.4-0.3-0.7v-1.6c-0.3,0.5-0.8,1-1.4,1.4c-0.6,0.4-1.3,0.8-2.1,1.1
				C227.2,277.4,226.2,277.5,225.1,277.5z M226.4,273.7c0.9,0,1.8-0.2,2.5-0.6c0.8-0.4,1.4-1,1.8-1.9c0.4-0.8,0.7-1.9,0.7-3.2v-0.8
				l-4,0.6c-1.6,0.2-2.7,0.6-3.5,1.2c-0.8,0.5-1.2,1.2-1.2,2c0,0.6,0.2,1.1,0.5,1.5c0.4,0.4,0.8,0.7,1.4,0.9
				C225.2,273.6,225.8,273.7,226.4,273.7z"/>
			<path class="st12" d="M242.8,277.1c-0.3,0-0.5-0.1-0.7-0.3c-0.2-0.2-0.3-0.4-0.3-0.7v-18.9c0-0.3,0.1-0.5,0.3-0.7
				s0.4-0.3,0.7-0.3h3.3c0.3,0,0.5,0.1,0.7,0.3c0.2,0.2,0.3,0.4,0.3,0.7v1.6c0.7-0.9,1.6-1.6,2.7-2.1c1.1-0.6,2.4-0.9,4-0.9
				s3,0.4,4.2,1.1s2.1,1.8,2.8,3.1c0.7,1.3,1,2.9,1,4.8V276c0,0.3-0.1,0.5-0.3,0.7c-0.2,0.2-0.4,0.3-0.7,0.3h-3.5
				c-0.3,0-0.5-0.1-0.7-0.3s-0.3-0.4-0.3-0.7v-11c0-1.5-0.4-2.8-1.1-3.6c-0.8-0.9-1.9-1.3-3.3-1.3c-1.4,0-2.5,0.4-3.3,1.3
				s-1.2,2.1-1.2,3.6v11c0,0.3-0.1,0.5-0.3,0.7s-0.4,0.3-0.7,0.3L242.8,277.1L242.8,277.1z"/>
			<path class="st12" d="M267.8,277.1c-0.3,0-0.5-0.1-0.7-0.3c-0.2-0.2-0.3-0.4-0.3-0.7v-26.5c0-0.3,0.1-0.5,0.3-0.7
				c0.2-0.2,0.4-0.3,0.7-0.3h3.2c0.3,0,0.5,0.1,0.7,0.3s0.3,0.4,0.3,0.7v13.7l6.7-6.4c0.2-0.2,0.5-0.4,0.6-0.5
				c0.2-0.1,0.5-0.2,0.8-0.2h3.7c0.3,0,0.5,0.1,0.6,0.2c0.2,0.2,0.2,0.4,0.2,0.6c0,0.1,0,0.2-0.1,0.4c-0.1,0.1-0.2,0.3-0.3,0.4
				l-8.2,7.7l9.2,9.9c0.3,0.3,0.4,0.5,0.4,0.7c0,0.3-0.1,0.5-0.3,0.6c-0.2,0.2-0.4,0.2-0.6,0.2h-3.8c-0.4,0-0.7-0.1-0.9-0.2
				c-0.2-0.1-0.4-0.3-0.6-0.5l-7.6-8v7.8c0,0.3-0.1,0.5-0.3,0.7c-0.2,0.2-0.4,0.3-0.7,0.3L267.8,277.1L267.8,277.1z"/>
			<path class="st12" d="M296.7,277.5c-1.6,0-3-0.2-4.1-0.6s-2.1-0.8-2.8-1.4c-0.7-0.6-1.3-1.1-1.6-1.7c-0.3-0.6-0.5-1-0.6-1.4
				c0-0.3,0.1-0.5,0.3-0.7c0.2-0.2,0.4-0.3,0.7-0.3h3.2c0.1,0,0.2,0,0.3,0c0.1,0,0.2,0.1,0.3,0.2c0.3,0.3,0.7,0.6,1.1,0.9
				s0.8,0.6,1.4,0.8c0.5,0.2,1.2,0.3,2,0.3c1,0,1.9-0.2,2.6-0.6s1.1-1,1.1-1.8c0-0.6-0.2-1-0.5-1.4c-0.3-0.3-0.9-0.7-1.7-0.9
				c-0.8-0.3-2-0.6-3.5-0.9s-2.7-0.8-3.7-1.3s-1.7-1.2-2.2-2s-0.7-1.7-0.7-2.8c0-1,0.3-2,0.9-3c0.6-0.9,1.6-1.7,2.8-2.3
				c1.2-0.6,2.8-0.9,4.6-0.9c1.4,0,2.7,0.2,3.8,0.5c1.1,0.4,2,0.8,2.7,1.3s1.2,1.1,1.6,1.6s0.6,1,0.6,1.4c0,0.3-0.1,0.5-0.2,0.7
				c-0.2,0.2-0.4,0.3-0.6,0.3h-3c-0.1,0-0.3,0-0.4-0.1s-0.2-0.1-0.3-0.2c-0.3-0.3-0.6-0.5-1-0.8c-0.3-0.3-0.8-0.6-1.3-0.8
				c-0.5-0.2-1.1-0.3-1.9-0.3c-1,0-1.8,0.2-2.3,0.7c-0.5,0.4-0.8,1-0.8,1.7c0,0.5,0.1,0.8,0.4,1.2c0.3,0.3,0.8,0.6,1.5,0.9
				c0.8,0.3,1.9,0.6,3.5,0.9c1.8,0.3,3.2,0.8,4.3,1.4c1.1,0.6,1.8,1.3,2.2,2.2c0.4,0.8,0.7,1.7,0.7,2.7c0,1.2-0.4,2.3-1.1,3.2
				c-0.7,1-1.7,1.7-3.1,2.3C300.4,277.2,298.7,277.5,296.7,277.5z"/>
			<path class="st12" d="M322.5,277.1c-0.3,0-0.5-0.1-0.7-0.3c-0.2-0.2-0.3-0.4-0.3-0.7v-15.6h-3.2c-0.3,0-0.5-0.1-0.7-0.3
				c-0.2-0.2-0.3-0.4-0.3-0.7v-2.3c0-0.3,0.1-0.5,0.3-0.7c0.2-0.2,0.4-0.3,0.7-0.3h3.2v-1.6c0-1.6,0.3-2.9,0.9-4s1.5-1.8,2.6-2.4
				c1.1-0.5,2.6-0.8,4.4-0.8h2.7c0.3,0,0.5,0.1,0.7,0.3s0.3,0.4,0.3,0.7v2.3c0,0.3-0.1,0.5-0.3,0.7c-0.2,0.2-0.4,0.3-0.7,0.3h-2.6
				c-1.1,0-1.8,0.3-2.2,0.8c-0.4,0.5-0.6,1.3-0.6,2.3v1.4h5c0.3,0,0.5,0.1,0.7,0.3c0.2,0.2,0.3,0.4,0.3,0.7v2.3
				c0,0.3-0.1,0.5-0.3,0.7c-0.2,0.2-0.4,0.3-0.7,0.3h-5v15.6c0,0.3-0.1,0.5-0.3,0.7s-0.4,0.3-0.7,0.3H322.5z"/>
			<path class="st12" d="M345,277.5c-2.1,0-3.9-0.4-5.4-1.1s-2.6-1.8-3.3-3.2c-0.8-1.4-1.2-2.9-1.3-4.8c0-0.5,0-1.1,0-1.8
				c0-0.7,0-1.3,0-1.8c0.1-1.8,0.6-3.4,1.3-4.8c0.8-1.3,1.9-2.4,3.4-3.1s3.2-1.1,5.3-1.1s3.8,0.4,5.3,1.1s2.6,1.8,3.4,3.1
				c0.8,1.3,1.2,2.9,1.3,4.8c0,0.5,0,1.1,0,1.8c0,0.7,0,1.3,0,1.8c-0.1,1.8-0.5,3.4-1.3,4.8s-1.9,2.4-3.3,3.2
				C348.9,277.1,347.1,277.5,345,277.5z M345,273.5c1.4,0,2.5-0.4,3.3-1.3s1.2-2.2,1.3-3.9c0-0.4,0-0.9,0-1.6s0-1.2,0-1.6
				c-0.1-1.7-0.5-3-1.3-3.9s-1.9-1.4-3.3-1.4s-2.5,0.5-3.3,1.4s-1.2,2.2-1.3,3.9c0,0.4,0,0.9,0,1.6s0,1.2,0,1.6
				c0.1,1.7,0.5,3,1.3,3.9S343.6,273.5,345,273.5z"/>
			<path class="st12" d="M360.5,277.1c-0.3,0-0.5-0.1-0.7-0.3c-0.2-0.2-0.3-0.4-0.3-0.7v-18.8c0-0.3,0.1-0.5,0.3-0.7
				c0.2-0.2,0.4-0.3,0.7-0.3h3.2c0.3,0,0.5,0.1,0.7,0.3c0.2,0.2,0.3,0.4,0.3,0.7v1.6c0.6-0.9,1.4-1.5,2.4-2s2.1-0.7,3.4-0.7h1.6
				c0.3,0,0.5,0.1,0.7,0.3c0.2,0.2,0.3,0.4,0.3,0.7v2.9c0,0.3-0.1,0.5-0.3,0.7c-0.2,0.2-0.4,0.3-0.7,0.3H369c-1.3,0-2.3,0.4-3,1.1
				s-1.1,1.7-1.1,3v11c0,0.3-0.1,0.5-0.3,0.7s-0.4,0.3-0.7,0.3h-3.4V277.1z"/>
			<path class="st12" d="M384.1,277.1c-0.2,0-0.4-0.1-0.6-0.2c-0.2-0.2-0.3-0.4-0.3-0.6c0-0.1,0-0.2,0.1-0.4l9.6-25.8
				c0.1-0.3,0.2-0.5,0.5-0.7c0.2-0.2,0.5-0.3,0.9-0.3h4.4c0.4,0,0.7,0.1,0.9,0.3c0.2,0.2,0.4,0.4,0.5,0.7l9.6,25.8
				c0,0.1,0,0.3,0,0.4c0,0.2-0.1,0.4-0.2,0.6c-0.2,0.2-0.3,0.2-0.6,0.2h-3.5c-0.4,0-0.6-0.1-0.8-0.3c-0.2-0.2-0.3-0.3-0.3-0.5
				l-1.9-4.9h-11.9l-1.9,4.9c-0.1,0.2-0.2,0.3-0.3,0.5c-0.2,0.2-0.4,0.3-0.8,0.3H384.1z M392,266.9h9.1l-4.6-12.4L392,266.9z"/>
			<path class="st12" d="M414.1,284.7c-0.3,0-0.5-0.1-0.7-0.3c-0.2-0.2-0.3-0.4-0.3-0.7v-26.5c0-0.3,0.1-0.5,0.3-0.7
				c0.2-0.2,0.4-0.3,0.7-0.3h3.2c0.3,0,0.5,0.1,0.7,0.3c0.2,0.2,0.3,0.4,0.3,0.7v1.6c0.6-0.9,1.5-1.6,2.5-2.1c1-0.6,2.3-0.8,3.9-0.8
				c1.4,0,2.6,0.2,3.7,0.7c1,0.5,1.9,1.1,2.6,1.9s1.2,1.8,1.6,3c0.4,1.1,0.6,2.4,0.6,3.8c0,0.5,0,0.9,0,1.4s0,1,0,1.4
				c0,1.3-0.2,2.6-0.6,3.7s-0.9,2.1-1.6,3c-0.7,0.8-1.6,1.5-2.6,2s-2.3,0.7-3.7,0.7c-1.4,0-2.7-0.3-3.7-0.8s-1.8-1.2-2.5-2.1v9.1
				c0,0.3-0.1,0.5-0.3,0.7c-0.2,0.2-0.4,0.3-0.7,0.3H414.1z M423.1,273.2c1.1,0,2-0.2,2.7-0.7c0.6-0.5,1.1-1.1,1.4-1.9
				s0.4-1.7,0.5-2.6c0.1-0.8,0.1-1.6,0-2.4c-0.1-1-0.2-1.8-0.5-2.6c-0.3-0.8-0.7-1.4-1.4-1.9c-0.6-0.5-1.5-0.7-2.7-0.7
				c-1.1,0-2,0.3-2.7,0.8s-1.2,1.2-1.5,1.9c-0.3,0.8-0.5,1.6-0.5,2.4c0,0.5,0,1,0,1.5s0,1.1,0,1.6c0,0.8,0.2,1.6,0.6,2.3
				c0.3,0.7,0.9,1.3,1.5,1.8C421.2,273,422,273.2,423.1,273.2z"/>
			<path class="st12" d="M438.6,284.7c-0.3,0-0.5-0.1-0.7-0.3c-0.2-0.2-0.3-0.4-0.3-0.7v-26.5c0-0.3,0.1-0.5,0.3-0.7
				c0.2-0.2,0.4-0.3,0.7-0.3h3.2c0.3,0,0.5,0.1,0.7,0.3c0.2,0.2,0.3,0.4,0.3,0.7v1.6c0.6-0.9,1.5-1.6,2.5-2.1c1-0.6,2.3-0.8,3.9-0.8
				c1.4,0,2.6,0.2,3.7,0.7c1,0.5,1.9,1.1,2.6,1.9s1.2,1.8,1.6,3c0.4,1.1,0.6,2.4,0.6,3.8c0,0.5,0,0.9,0,1.4s0,1,0,1.4
				c0,1.3-0.2,2.6-0.6,3.7s-0.9,2.1-1.6,3c-0.7,0.8-1.6,1.5-2.6,2s-2.3,0.7-3.7,0.7c-1.4,0-2.7-0.3-3.7-0.8s-1.8-1.2-2.5-2.1v9.1
				c0,0.3-0.1,0.5-0.3,0.7c-0.2,0.2-0.4,0.3-0.7,0.3H438.6z M447.7,273.2c1.1,0,2-0.2,2.7-0.7c0.6-0.5,1.1-1.1,1.4-1.9
				s0.4-1.7,0.5-2.6c0.1-0.8,0.1-1.6,0-2.4c-0.1-1-0.2-1.8-0.5-2.6c-0.3-0.8-0.7-1.4-1.4-1.9c-0.6-0.5-1.5-0.7-2.7-0.7
				c-1.1,0-2,0.3-2.7,0.8s-1.2,1.2-1.5,1.9c-0.3,0.8-0.5,1.6-0.5,2.4c0,0.5,0,1,0,1.5s0,1.1,0,1.6c0,0.8,0.2,1.6,0.6,2.3
				c0.3,0.7,0.9,1.3,1.5,1.8C445.7,273,446.6,273.2,447.7,273.2z"/>
			<path class="st12" d="M463.2,277.1c-0.3,0-0.5-0.1-0.7-0.3c-0.2-0.2-0.3-0.4-0.3-0.7v-26.5c0-0.3,0.1-0.5,0.3-0.7
				c0.2-0.2,0.4-0.3,0.7-0.3h3.3c0.3,0,0.5,0.1,0.7,0.3s0.3,0.4,0.3,0.7v26.5c0,0.3-0.1,0.5-0.3,0.7c-0.2,0.2-0.4,0.3-0.7,0.3H463.2
				z"/>
			<path class="st12" d="M476.5,284.7c-0.2,0-0.4-0.1-0.6-0.2c-0.2-0.2-0.2-0.3-0.2-0.6c0-0.1,0-0.2,0-0.3c0-0.1,0.1-0.2,0.1-0.3
				l3.1-7.4l-7.7-18.1c-0.1-0.3-0.2-0.5-0.2-0.6c0-0.2,0.1-0.4,0.3-0.6c0.2-0.2,0.4-0.3,0.6-0.3h3.2c0.3,0,0.6,0.1,0.7,0.2
				c0.2,0.2,0.3,0.3,0.4,0.5l5.3,13.1L487,257c0.1-0.2,0.2-0.4,0.4-0.5c0.2-0.1,0.4-0.2,0.7-0.2h3.2c0.2,0,0.4,0.1,0.6,0.2
				c0.2,0.2,0.3,0.3,0.3,0.6c0,0.2-0.1,0.4-0.2,0.6l-11.3,26.2c-0.1,0.2-0.2,0.4-0.4,0.5c-0.2,0.1-0.4,0.2-0.7,0.2L476.5,284.7
				L476.5,284.7z"/>
			<path class="st12" d="M496.5,252.9c-0.3,0-0.5-0.1-0.7-0.3s-0.3-0.4-0.3-0.7V249c0-0.3,0.1-0.5,0.3-0.7c0.2-0.2,0.4-0.3,0.7-0.3
				h3.6c0.3,0,0.5,0.1,0.7,0.3s0.3,0.4,0.3,0.7v2.9c0,0.3-0.1,0.5-0.3,0.7c-0.2,0.2-0.4,0.3-0.7,0.3H496.5z M496.7,277.1
				c-0.3,0-0.5-0.1-0.7-0.3s-0.3-0.4-0.3-0.7v-18.9c0-0.3,0.1-0.5,0.3-0.7c0.2-0.2,0.4-0.3,0.7-0.3h3.3c0.3,0,0.5,0.1,0.7,0.3
				c0.2,0.2,0.3,0.4,0.3,0.7v18.9c0,0.3-0.1,0.5-0.3,0.7c-0.2,0.2-0.4,0.3-0.7,0.3H496.7z"/>
			<path class="st12" d="M507.2,277.1c-0.3,0-0.5-0.1-0.7-0.3s-0.3-0.4-0.3-0.7v-18.9c0-0.3,0.1-0.5,0.3-0.7
				c0.2-0.2,0.4-0.3,0.7-0.3h3.3c0.3,0,0.5,0.1,0.7,0.3c0.2,0.2,0.3,0.4,0.3,0.7v1.6c0.7-0.9,1.6-1.6,2.7-2.1c1.1-0.6,2.4-0.9,4-0.9
				s3,0.4,4.2,1.1s2.1,1.8,2.8,3.1c0.7,1.3,1,2.9,1,4.8V276c0,0.3-0.1,0.5-0.3,0.7s-0.4,0.3-0.7,0.3h-3.5c-0.3,0-0.5-0.1-0.7-0.3
				c-0.2-0.2-0.3-0.4-0.3-0.7v-11c0-1.5-0.4-2.8-1.1-3.6c-0.8-0.9-1.9-1.3-3.3-1.3c-1.4,0-2.5,0.4-3.3,1.3s-1.2,2.1-1.2,3.6v11
				c0,0.3-0.1,0.5-0.3,0.7s-0.4,0.3-0.7,0.3L507.2,277.1L507.2,277.1z"/>
			<path class="st12" d="M540.6,285.9c-1.9,0-3.5-0.3-4.8-0.8s-2.2-1.1-3-1.8c-0.7-0.7-1.2-1.4-1.5-2.1s-0.5-1.3-0.5-1.7
				c0-0.3,0.1-0.5,0.3-0.7s0.4-0.3,0.7-0.3h3.5c0.3,0,0.5,0.1,0.6,0.2s0.3,0.3,0.4,0.7c0.2,0.3,0.4,0.7,0.6,1.1
				c0.3,0.4,0.7,0.7,1.2,1s1.3,0.4,2.3,0.4s1.9-0.1,2.6-0.4c0.7-0.3,1.2-0.8,1.6-1.5c0.4-0.7,0.5-1.7,0.5-2.9v-2.7
				c-0.6,0.8-1.5,1.4-2.5,1.9s-2.2,0.7-3.7,0.7c-1.4,0-2.7-0.2-3.7-0.7s-1.9-1.1-2.6-2c-0.7-0.8-1.2-1.8-1.6-3s-0.6-2.4-0.6-3.8
				c0-0.7,0-1.4,0-2.2c0.1-1.3,0.3-2.6,0.6-3.7s0.9-2.2,1.6-3c0.7-0.9,1.6-1.5,2.6-2s2.3-0.7,3.7-0.7c1.5,0,2.8,0.3,3.8,0.9
				s1.9,1.3,2.6,2.1v-1.6c0-0.3,0.1-0.5,0.3-0.7s0.4-0.3,0.7-0.3h3.2c0.3,0,0.5,0.1,0.7,0.3c0.2,0.2,0.3,0.4,0.3,0.7v19.3
				c0,1.9-0.4,3.6-1.1,5c-0.7,1.4-1.8,2.5-3.3,3.2C544.8,285.5,542.9,285.9,540.6,285.9z M540.4,272.7c1.1,0,2-0.2,2.6-0.7
				c0.7-0.5,1.2-1.1,1.5-1.9s0.5-1.6,0.6-2.4c0-0.3,0-0.8,0-1.3s0-1,0-1.3c-0.1-0.8-0.2-1.6-0.6-2.4c-0.3-0.8-0.8-1.4-1.5-1.9
				s-1.5-0.7-2.6-0.7s-2,0.2-2.6,0.7c-0.7,0.5-1.1,1.1-1.4,1.9c-0.3,0.8-0.4,1.7-0.5,2.6c-0.1,0.6-0.1,1.3,0,2
				c0.1,0.9,0.2,1.8,0.5,2.6c0.3,0.8,0.8,1.5,1.4,1.9C538.5,272.5,539.4,272.7,540.4,272.7z"/>
			<path class="st12" d="M556.7,277.1c-0.3,0-0.5-0.1-0.7-0.3c-0.2-0.2-0.3-0.4-0.3-0.7v-3.7c0-0.3,0.1-0.5,0.3-0.7s0.4-0.3,0.7-0.3
				h3.7c0.3,0,0.5,0.1,0.7,0.3c0.2,0.2,0.3,0.4,0.3,0.7v3.7c0,0.3-0.1,0.5-0.3,0.7s-0.4,0.3-0.7,0.3H556.7z M557,269.3
				c-0.3,0-0.5-0.1-0.7-0.3c-0.2-0.2-0.3-0.4-0.3-0.7V250c0-0.3,0.1-0.5,0.3-0.7s0.4-0.3,0.7-0.3h3.2c0.3,0,0.5,0.1,0.7,0.3
				s0.3,0.4,0.3,0.7v18.3c0,0.3-0.1,0.5-0.3,0.7s-0.4,0.3-0.7,0.3H557z"/>
		</g>
	</g>
	<circle class="st12" cx="365.5" cy="180.8" r="41.7"/>
	<polyline class="st13" points="347.1,178.3 361,192.2 383.9,169.4 	"/>
	<g>
		<g>
			
				<image style="overflow:visible;opacity:0.1;enable-background:new    ;" width="346" height="326" xlink:href="64A0BA2AF0E687B3.png"  transform="matrix(1 0 0 1 652 15)">
			</image>
			<g>
				<path class="st6" d="M927.3,250.5H722.5c-5.5,0-10-4.5-10-10V55.9c0-5.5,4.5-10,10-10h204.8c5.5,0,10,4.5,10,10v184.6
					C937.3,246,932.8,250.5,927.3,250.5z"/>
			</g>
		</g>
		<path class="st7" d="M937.3,95.9H712.5v-40c0-5.5,4.5-10,10-10h204.8c5.5,0,10,4.5,10,10V95.9z"/>
		<g>
			<circle class="st8" cx="742.5" cy="71.4" r="8.6"/>
			<circle class="st9" cx="773" cy="71.4" r="8.6"/>
			<circle class="st10" cx="803.5" cy="71.4" r="8.6"/>
		</g>
		<line class="st11" x1="733.3" y1="117.1" x2="916.4" y2="117.1"/>
		<line class="st11" x1="733.3" y1="133.6" x2="916.4" y2="133.6"/>
		<line class="st11" x1="733.3" y1="150.1" x2="916.4" y2="150.1"/>
		<line class="st11" x1="733.3" y1="166.6" x2="866.7" y2="166.6"/>
		<line class="st11" x1="733.3" y1="183.1" x2="829.3" y2="183.1"/>
		<path class="st12" d="M911.4,230.5h-68.2c-2.8,0-5-2.2-5-5v-17.3c0-2.8,2.2-5,5-5h68.2c2.8,0,5,2.2,5,5v17.3
			C916.4,228.3,914.2,230.5,911.4,230.5z"/>
		<g>
			<g>
				<path class="st10" d="M850.1,222c-1,0-1.8-0.1-2.5-0.4c-0.7-0.3-1.2-0.7-1.5-1.2s-0.5-1-0.6-1.5c0-0.1,0-0.2,0.1-0.2
					c0.1-0.1,0.1-0.1,0.2-0.1h1.4c0.1,0,0.2,0,0.3,0.1s0.1,0.1,0.2,0.2c0.1,0.2,0.2,0.4,0.4,0.6c0.2,0.2,0.4,0.4,0.7,0.5
					s0.7,0.2,1.2,0.2c0.8,0,1.3-0.1,1.7-0.4c0.4-0.3,0.6-0.6,0.6-1c0-0.3-0.1-0.6-0.3-0.7c-0.2-0.2-0.5-0.4-0.9-0.5
					c-0.4-0.2-1-0.3-1.7-0.5c-0.8-0.2-1.5-0.4-2-0.7s-0.9-0.6-1.2-1s-0.4-0.9-0.4-1.6c0-0.6,0.2-1.2,0.5-1.6s0.8-0.9,1.4-1.1
					s1.4-0.4,2.2-0.4c0.7,0,1.3,0.1,1.8,0.3s1,0.4,1.3,0.7c0.4,0.3,0.6,0.6,0.8,1c0.2,0.3,0.3,0.7,0.3,1c0,0.1,0,0.2-0.1,0.2
					c-0.1,0.1-0.1,0.1-0.2,0.1h-1.5c-0.1,0-0.2,0-0.3-0.1c-0.1,0-0.2-0.1-0.2-0.2c-0.1-0.3-0.3-0.6-0.6-0.8
					c-0.4-0.2-0.8-0.4-1.4-0.4c-0.6,0-1,0.1-1.4,0.3s-0.5,0.5-0.5,1c0,0.3,0.1,0.5,0.3,0.7s0.5,0.4,0.8,0.5s0.9,0.3,1.5,0.5
					c0.9,0.2,1.6,0.4,2.2,0.7c0.6,0.3,1,0.6,1.3,1s0.4,0.9,0.4,1.6c0,0.7-0.2,1.3-0.6,1.8c-0.4,0.5-0.9,0.9-1.6,1.1
					C851.8,221.9,851,222,850.1,222z"/>
				<path class="st10" d="M859.9,222c-1.2,0-2.1-0.3-2.8-1s-1.1-1.7-1.1-2.9c0-0.1,0-0.2,0-0.4s0-0.3,0-0.4c0-0.8,0.2-1.5,0.6-2.1
					c0.3-0.6,0.8-1,1.4-1.4c0.6-0.3,1.3-0.5,2-0.5c0.9,0,1.6,0.2,2.2,0.5c0.6,0.4,1,0.9,1.3,1.5s0.4,1.4,0.4,2.2v0.3
					c0,0.1,0,0.2-0.1,0.3s-0.2,0.1-0.3,0.1h-5.3c0,0.1,0,0.1,0,0.1c0,0.4,0.1,0.7,0.2,1c0.1,0.3,0.3,0.6,0.6,0.8s0.6,0.3,0.9,0.3
					c0.3,0,0.5,0,0.8-0.1c0.2-0.1,0.4-0.2,0.5-0.3s0.2-0.2,0.3-0.3s0.2-0.2,0.2-0.2c0.1,0,0.1,0,0.3,0h1.4c0.1,0,0.2,0,0.3,0.1
					s0.1,0.1,0.1,0.2c0,0.2-0.1,0.4-0.3,0.6c-0.2,0.2-0.4,0.5-0.7,0.7s-0.7,0.4-1.2,0.6C861,222,860.5,222,859.9,222z M858.1,217
					h3.5l0,0c0-0.4-0.1-0.8-0.2-1.1c-0.1-0.3-0.3-0.6-0.6-0.7c-0.3-0.2-0.6-0.3-1-0.3s-0.7,0.1-1,0.3s-0.5,0.4-0.6,0.7
					C858.2,216.2,858.1,216.5,858.1,217L858.1,217z"/>
				<path class="st10" d="M865.9,221.9c-0.1,0-0.2,0-0.3-0.1s-0.1-0.2-0.1-0.3V214c0-0.1,0-0.2,0.1-0.3s0.2-0.1,0.3-0.1h1.3
					c0.1,0,0.2,0,0.3,0.1s0.1,0.2,0.1,0.3v0.7c0.3-0.3,0.6-0.6,1.1-0.9c0.4-0.2,1-0.3,1.6-0.3c0.7,0,1.2,0.1,1.7,0.4
					c0.5,0.3,0.9,0.7,1.1,1.2c0.3,0.5,0.4,1.2,0.4,1.9v4.5c0,0.1,0,0.2-0.1,0.3s-0.2,0.1-0.3,0.1h-1.4c-0.1,0-0.2,0-0.3-0.1
					s-0.1-0.2-0.1-0.3v-4.4c0-0.6-0.2-1.1-0.5-1.5s-0.7-0.5-1.3-0.5s-1,0.2-1.3,0.5c-0.3,0.4-0.5,0.8-0.5,1.5v4.4
					c0,0.1,0,0.2-0.1,0.3s-0.2,0.1-0.3,0.1H865.9z"/>
				<path class="st10" d="M878.6,222c-0.6,0-1-0.1-1.5-0.3c-0.4-0.2-0.8-0.5-1-0.8c-0.3-0.3-0.5-0.7-0.6-1.2s-0.2-1-0.3-1.5
					c0-0.2,0-0.4,0-0.5c0-0.2,0-0.3,0-0.5c0-0.5,0.1-1,0.2-1.5c0.1-0.5,0.4-0.9,0.6-1.2c0.3-0.3,0.6-0.6,1.1-0.8
					c0.4-0.2,0.9-0.3,1.5-0.3s1.1,0.1,1.5,0.3s0.7,0.5,1,0.8v-3.6c0-0.1,0-0.2,0.1-0.3s0.2-0.1,0.3-0.1h1.4c0.1,0,0.2,0,0.3,0.1
					s0.1,0.2,0.1,0.3v10.6c0,0.1,0,0.2-0.1,0.3s-0.2,0.1-0.3,0.1h-1.3c-0.1,0-0.2,0-0.3-0.1s-0.1-0.2-0.1-0.3v-0.6
					c-0.3,0.3-0.6,0.6-1,0.8C879.7,221.9,879.2,222,878.6,222z M879.2,220.3c0.4,0,0.8-0.1,1.1-0.3s0.5-0.5,0.6-0.8s0.2-0.6,0.2-1
					c0-0.2,0-0.4,0-0.6s0-0.4,0-0.6c0-0.3-0.1-0.6-0.2-0.9s-0.3-0.5-0.6-0.7s-0.6-0.3-1-0.3s-0.8,0.1-1.1,0.3s-0.5,0.5-0.6,0.8
					s-0.2,0.7-0.2,1.1c0,0.3,0,0.6,0,1s0.1,0.7,0.2,1.1c0.1,0.3,0.3,0.6,0.6,0.8C878.4,220.2,878.7,220.3,879.2,220.3z"/>
				<path class="st10" d="M893.5,222c-1,0-1.8-0.2-2.5-0.5s-1.2-0.8-1.6-1.5c-0.4-0.6-0.6-1.4-0.6-2.3c0-0.4,0-0.9,0-1.4s0-1,0-1.4
					c0-0.9,0.2-1.7,0.6-2.3c0.4-0.7,0.9-1.1,1.6-1.5c0.7-0.3,1.5-0.5,2.5-0.5c0.7,0,1.4,0.1,2,0.3s1.1,0.5,1.5,0.8s0.7,0.7,0.9,1.2
					c0.2,0.4,0.3,0.9,0.4,1.5c0,0.1,0,0.2-0.1,0.2s-0.2,0.1-0.2,0.1h-1.5c-0.1,0-0.2,0-0.3-0.1s-0.1-0.2-0.2-0.3
					c-0.2-0.7-0.5-1.2-0.9-1.4c-0.4-0.3-0.9-0.4-1.6-0.4c-0.7,0-1.3,0.2-1.7,0.6s-0.7,1.1-0.7,2s0,1.8,0,2.7s0.3,1.6,0.7,2
					s1,0.6,1.7,0.6c0.6,0,1.1-0.1,1.6-0.4c0.4-0.3,0.7-0.7,0.9-1.4c0-0.1,0.1-0.3,0.2-0.3c0.1-0.1,0.2-0.1,0.3-0.1h1.5
					c0.1,0,0.2,0,0.2,0.1s0.1,0.1,0.1,0.2c0,0.5-0.1,1-0.4,1.5c-0.2,0.4-0.5,0.8-0.9,1.2s-0.9,0.6-1.5,0.8
					C894.9,222,894.2,222,893.5,222z"/>
				<path class="st10" d="M903.4,221.9c-0.2,0-0.3,0-0.4-0.1c-0.1-0.1-0.2-0.2-0.2-0.3l-3.4-10.3c0-0.1,0-0.1,0-0.1
					c0-0.1,0-0.2,0.1-0.2c0.1-0.1,0.1-0.1,0.2-0.1h1.4c0.1,0,0.3,0,0.3,0.1s0.1,0.2,0.2,0.2l2.7,8.2l2.7-8.2c0-0.1,0.1-0.2,0.2-0.2
					s0.2-0.1,0.3-0.1h1.4c0.1,0,0.2,0,0.2,0.1c0.1,0.1,0.1,0.1,0.1,0.2v0.1l-3.4,10.3c0,0.1-0.1,0.2-0.2,0.3s-0.2,0.1-0.4,0.1H903.4
					z"/>
			</g>
		</g>
	</g>
	<g>
		<g>
			
				<image style="overflow:visible;opacity:0.1;enable-background:new    ;" width="346" height="326" xlink:href="64A0BA2AF0E687B4.png"  transform="matrix(1 0 0 1 528 712)">
			</image>
			<g>
				<path class="st6" d="M803.5,947H598.7c-5.5,0-10-4.5-10-10V752.4c0-5.5,4.5-10,10-10h204.8c5.5,0,10,4.5,10,10V937
					C813.5,942.6,809.1,947,803.5,947z"/>
			</g>
		</g>
		<path class="st7" d="M813.5,792.4H588.7v-40c0-5.5,4.5-10,10-10h204.8c5.5,0,10,4.5,10,10V792.4z"/>
		<g>
			<circle class="st8" cx="618.8" cy="768" r="8.6"/>
			<circle class="st9" cx="649.3" cy="768" r="8.6"/>
			<circle class="st10" cx="679.8" cy="768" r="8.6"/>
		</g>
		<line class="st11" x1="609.6" y1="813.6" x2="792.7" y2="813.6"/>
		<line class="st11" x1="609.6" y1="830.1" x2="792.7" y2="830.1"/>
		<line class="st11" x1="609.6" y1="846.6" x2="792.7" y2="846.6"/>
		<line class="st11" x1="609.6" y1="863.1" x2="743" y2="863.1"/>
		<line class="st11" x1="609.6" y1="879.6" x2="705.6" y2="879.6"/>
		<path class="st12" d="M787.7,927h-68.2c-2.8,0-5-2.2-5-5v-17.3c0-2.8,2.2-5,5-5h68.2c2.8,0,5,2.2,5,5V922
			C792.7,924.8,790.4,927,787.7,927z"/>
		<g>
			<g>
				<path class="st10" d="M726.4,918.6c-1,0-1.8-0.1-2.5-0.4c-0.7-0.3-1.2-0.7-1.5-1.2s-0.5-1-0.6-1.5c0-0.1,0-0.2,0.1-0.2
					c0.1-0.1,0.1-0.1,0.2-0.1h1.4c0.1,0,0.2,0,0.3,0.1s0.1,0.1,0.2,0.2c0.1,0.2,0.2,0.4,0.4,0.6c0.2,0.2,0.4,0.4,0.7,0.5
					s0.7,0.2,1.2,0.2c0.8,0,1.3-0.1,1.7-0.4c0.4-0.3,0.6-0.6,0.6-1c0-0.3-0.1-0.6-0.3-0.7c-0.2-0.2-0.5-0.4-0.9-0.5
					c-0.4-0.2-1-0.3-1.7-0.5c-0.8-0.2-1.5-0.4-2-0.7s-0.9-0.6-1.2-1s-0.4-0.9-0.4-1.6c0-0.6,0.2-1.2,0.5-1.6
					c0.3-0.5,0.8-0.9,1.4-1.1s1.4-0.4,2.2-0.4c0.7,0,1.3,0.1,1.8,0.3s1,0.4,1.3,0.7c0.4,0.3,0.6,0.6,0.8,1s0.3,0.7,0.3,1
					c0,0.1,0,0.2-0.1,0.2s-0.1,0.1-0.2,0.1h-1.5c-0.1,0-0.2,0-0.3-0.1c-0.1,0-0.2-0.1-0.2-0.2c-0.1-0.3-0.3-0.6-0.6-0.8
					s-0.8-0.4-1.4-0.4c-0.6,0-1,0.1-1.4,0.3s-0.5,0.5-0.5,1c0,0.3,0.1,0.5,0.3,0.7s0.5,0.4,0.8,0.5s0.9,0.3,1.5,0.5
					c0.9,0.2,1.6,0.4,2.2,0.7c0.6,0.3,1,0.6,1.3,1s0.4,0.9,0.4,1.6c0,0.7-0.2,1.3-0.6,1.8c-0.4,0.5-0.9,0.9-1.6,1.1
					S727.3,918.6,726.4,918.6z"/>
				<path class="st10" d="M736.1,918.6c-1.2,0-2.1-0.3-2.8-1s-1.1-1.7-1.1-2.9c0-0.1,0-0.2,0-0.4s0-0.3,0-0.4c0-0.8,0.2-1.5,0.6-2.1
					s0.8-1,1.4-1.4c0.6-0.3,1.3-0.5,2-0.5c0.9,0,1.6,0.2,2.2,0.5c0.6,0.4,1,0.9,1.3,1.5s0.4,1.4,0.4,2.2v0.3c0,0.1,0,0.2-0.1,0.3
					s-0.2,0.1-0.3,0.1h-5.3c0,0.1,0,0.1,0,0.1c0,0.4,0.1,0.7,0.2,1c0.1,0.3,0.3,0.6,0.6,0.8s0.6,0.3,0.9,0.3c0.3,0,0.5,0,0.8-0.1
					c0.2-0.1,0.4-0.2,0.5-0.3s0.2-0.2,0.3-0.3s0.2-0.2,0.2-0.2s0.1,0,0.3,0h1.4c0.1,0,0.2,0,0.3,0.1s0.1,0.1,0.1,0.2
					c0,0.2-0.1,0.4-0.3,0.6c-0.2,0.2-0.4,0.5-0.7,0.7s-0.7,0.4-1.2,0.6C737.3,918.5,736.7,918.6,736.1,918.6z M734.4,913.6h3.5l0,0
					c0-0.4-0.1-0.8-0.2-1.1c-0.1-0.3-0.3-0.6-0.6-0.7s-0.6-0.3-1-0.3s-0.7,0.1-1,0.3s-0.5,0.4-0.6,0.7
					C734.4,912.7,734.4,913.1,734.4,913.6L734.4,913.6z"/>
				<path class="st10" d="M742.2,918.4c-0.1,0-0.2,0-0.3-0.1s-0.1-0.2-0.1-0.3v-7.6c0-0.1,0-0.2,0.1-0.3s0.2-0.1,0.3-0.1h1.3
					c0.1,0,0.2,0,0.3,0.1s0.1,0.2,0.1,0.3v0.7c0.3-0.3,0.6-0.6,1.1-0.9c0.4-0.2,1-0.3,1.6-0.3c0.7,0,1.2,0.1,1.7,0.4
					c0.5,0.3,0.9,0.7,1.1,1.2c0.3,0.5,0.4,1.2,0.4,1.9v4.5c0,0.1,0,0.2-0.1,0.3s-0.2,0.1-0.3,0.1H748c-0.1,0-0.2,0-0.3-0.1
					s-0.1-0.2-0.1-0.3v-4.4c0-0.6-0.2-1.1-0.5-1.5s-0.7-0.5-1.3-0.5s-1,0.2-1.3,0.5c-0.3,0.4-0.5,0.8-0.5,1.5v4.4
					c0,0.1,0,0.2-0.1,0.3s-0.2,0.1-0.3,0.1L742.2,918.4L742.2,918.4z"/>
				<path class="st10" d="M754.9,918.6c-0.6,0-1-0.1-1.5-0.3c-0.4-0.2-0.8-0.5-1-0.8s-0.5-0.7-0.6-1.2s-0.2-1-0.3-1.5
					c0-0.2,0-0.4,0-0.5s0-0.3,0-0.5c0-0.5,0.1-1,0.2-1.5c0.1-0.5,0.4-0.9,0.6-1.2c0.3-0.3,0.6-0.6,1.1-0.8c0.4-0.2,0.9-0.3,1.5-0.3
					s1.1,0.1,1.5,0.3s0.7,0.5,1,0.8v-3.6c0-0.1,0-0.2,0.1-0.3s0.2-0.1,0.3-0.1h1.4c0.1,0,0.2,0,0.3,0.1s0.1,0.2,0.1,0.3V918
					c0,0.1,0,0.2-0.1,0.3s-0.2,0.1-0.3,0.1h-1.3c-0.1,0-0.2,0-0.3-0.1s-0.1-0.2-0.1-0.3v-0.6c-0.3,0.3-0.6,0.6-1,0.8
					C756,918.5,755.5,918.6,754.9,918.6z M755.5,916.9c0.4,0,0.8-0.1,1.1-0.3s0.5-0.5,0.6-0.8s0.2-0.6,0.2-1c0-0.2,0-0.4,0-0.6
					s0-0.4,0-0.6c0-0.3-0.1-0.6-0.2-0.9c-0.1-0.3-0.3-0.5-0.6-0.7s-0.6-0.3-1-0.3s-0.8,0.1-1.1,0.3s-0.5,0.5-0.6,0.8
					s-0.2,0.7-0.2,1.1c0,0.3,0,0.6,0,1s0.1,0.7,0.2,1.1c0.1,0.3,0.3,0.6,0.6,0.8C754.7,916.8,755,916.9,755.5,916.9z"/>
				<path class="st10" d="M769.8,918.6c-1,0-1.8-0.2-2.5-0.5s-1.2-0.8-1.6-1.5c-0.4-0.6-0.6-1.4-0.6-2.3c0-0.4,0-0.9,0-1.4
					s0-1,0-1.4c0-0.9,0.2-1.7,0.6-2.3c0.4-0.7,0.9-1.1,1.6-1.5c0.7-0.3,1.5-0.5,2.5-0.5c0.7,0,1.4,0.1,2,0.3s1.1,0.5,1.5,0.8
					s0.7,0.7,0.9,1.2c0.2,0.4,0.3,0.9,0.4,1.5c0,0.1,0,0.2-0.1,0.2c-0.1,0.1-0.2,0.1-0.2,0.1h-1.5c-0.1,0-0.2,0-0.3-0.1
					s-0.1-0.2-0.2-0.3c-0.2-0.7-0.5-1.2-0.9-1.4c-0.4-0.3-0.9-0.4-1.6-0.4c-0.7,0-1.3,0.2-1.7,0.6c-0.4,0.4-0.7,1.1-0.7,2
					s0,1.8,0,2.7s0.3,1.6,0.7,2s1,0.6,1.7,0.6c0.6,0,1.1-0.1,1.6-0.4c0.4-0.3,0.7-0.7,0.9-1.4c0-0.1,0.1-0.3,0.2-0.3
					c0.1-0.1,0.2-0.1,0.3-0.1h1.5c0.1,0,0.2,0,0.2,0.1c0.1,0.1,0.1,0.1,0.1,0.2c0,0.5-0.1,1-0.4,1.5c-0.2,0.4-0.5,0.8-0.9,1.2
					s-0.9,0.6-1.5,0.8C771.1,918.5,770.5,918.6,769.8,918.6z"/>
				<path class="st10" d="M779.6,918.4c-0.2,0-0.3,0-0.4-0.1c-0.1-0.1-0.2-0.2-0.2-0.3l-3.4-10.3c0-0.1,0-0.1,0-0.1
					c0-0.1,0-0.2,0.1-0.2c0.1-0.1,0.1-0.1,0.2-0.1h1.4c0.1,0,0.3,0,0.3,0.1s0.1,0.2,0.2,0.2l2.7,8.2l2.7-8.2c0-0.1,0.1-0.2,0.2-0.2
					s0.2-0.1,0.3-0.1h1.4c0.1,0,0.2,0,0.2,0.1c0.1,0.1,0.1,0.1,0.1,0.2v0.1L782,918c0,0.1-0.1,0.2-0.2,0.3c-0.1,0.1-0.2,0.1-0.4,0.1
					L779.6,918.4L779.6,918.4z"/>
			</g>
		</g>
	</g>
	<g>
		<g>
			
				<image style="overflow:visible;opacity:0.1;enable-background:new    ;" width="538" height="500" xlink:href="64A0BA2AF0E687B5.png"  transform="matrix(1 0 0 1 460 254)">
			</image>
			<g>
				<path class="st6" d="M927.3,663.6H530.6c-5.5,0-10-4.5-10-10V294.4c0-5.5,4.5-10,10-10h396.7c5.5,0,10,4.5,10,10v359.2
					C937.3,659.1,932.8,663.6,927.3,663.6z"/>
			</g>
		</g>
		<path class="st10" d="M894.5,403.4h-73.8c-2.8,0-5-2.2-5-5v-26c0-2.8,2.2-5,5-5h73.8c2.8,0,5,2.2,5,5v26
			C899.5,401.1,897.3,403.4,894.5,403.4z"/>
		<path class="st7" d="M937.3,334.4H520.6v-40c0-5.5,4.5-10,10-10h396.7c5.5,0,10,4.5,10,10V334.4z"/>
		<g>
			<circle class="st8" cx="552.9" cy="309.4" r="8.6"/>
			<circle class="st9" cx="583.4" cy="309.4" r="8.6"/>
			<circle class="st10" cx="613.9" cy="309.4" r="8.6"/>
		</g>
		<g>
			<g>
				<path class="st12" d="M566.9,393.6c-1.1,0-2.1-0.1-3.1-0.4s-1.8-0.7-2.6-1.2c-0.8-0.6-1.4-1.2-1.8-2.1c-0.4-0.8-0.7-1.8-0.7-2.9
					c0-0.2,0.1-0.3,0.2-0.5c0.1-0.1,0.3-0.2,0.5-0.2h2.8c0.3,0,0.5,0.1,0.6,0.2s0.2,0.3,0.3,0.6c0.1,0.7,0.3,1.3,0.7,1.8
					s0.8,0.8,1.4,1c0.5,0.2,1.2,0.3,1.8,0.3c1.3,0,2.2-0.4,2.9-1.2c0.7-0.8,1-2,1-3.4v-9.7h-10.2c-0.2,0-0.4-0.1-0.5-0.2
					s-0.2-0.3-0.2-0.5v-2.1c0-0.2,0.1-0.4,0.2-0.5c0.1-0.1,0.3-0.2,0.5-0.2h13.7c0.2,0,0.4,0.1,0.5,0.2s0.2,0.3,0.2,0.5v12.6
					c0,1.7-0.3,3.1-1,4.3c-0.7,1.2-1.7,2.1-2.9,2.7C570.1,393.3,568.6,393.6,566.9,393.6z"/>
				<path class="st12" d="M586.3,393.6c-1.6,0-2.9-0.3-4-0.8c-1.1-0.6-1.9-1.4-2.5-2.4s-0.9-2.2-1-3.6c0-0.4,0-0.8,0-1.3s0-1,0-1.3
					c0.1-1.4,0.4-2.6,1-3.6s1.4-1.8,2.5-2.4s2.4-0.8,4-0.8s2.9,0.3,4,0.8c1.1,0.6,1.9,1.3,2.5,2.4c0.6,1,0.9,2.2,1,3.6
					c0,0.4,0,0.8,0,1.3s0,1,0,1.3c-0.1,1.4-0.4,2.5-1,3.6s-1.4,1.8-2.5,2.4S587.9,393.6,586.3,393.6z M586.3,390.7
					c1.1,0,1.9-0.3,2.5-1s0.9-1.7,1-3c0-0.3,0-0.7,0-1.2s0-0.9,0-1.2c-0.1-1.3-0.4-2.3-1-2.9c-0.6-0.7-1.4-1-2.5-1s-1.9,0.3-2.5,1
					s-0.9,1.7-1,2.9c0,0.3,0,0.7,0,1.2s0,0.9,0,1.2c0.1,1.3,0.4,2.3,1,3S585.2,390.7,586.3,390.7z"/>
				<path class="st12" d="M605.8,393.6c-1.2,0-2.1-0.2-2.9-0.6c-0.8-0.4-1.4-0.9-1.9-1.5v1.1c0,0.2-0.1,0.4-0.2,0.5
					c-0.1,0.1-0.3,0.2-0.5,0.2h-2.4c-0.2,0-0.4-0.1-0.5-0.2s-0.2-0.3-0.2-0.5v-19.9c0-0.2,0.1-0.4,0.2-0.5c0.1-0.1,0.3-0.2,0.5-0.2
					h2.5c0.2,0,0.4,0.1,0.5,0.2s0.2,0.3,0.2,0.5v6.7c0.5-0.6,1.1-1.1,1.9-1.4c0.8-0.4,1.7-0.6,2.7-0.6c1.1,0,2,0.2,2.8,0.5
					c0.8,0.4,1.4,0.9,2,1.5c0.5,0.7,0.9,1.4,1.2,2.3s0.4,1.8,0.4,2.8c0,0.4,0,0.7,0,1s0,0.6,0,1c0,1-0.2,2-0.5,2.9s-0.7,1.6-1.2,2.3
					c-0.5,0.6-1.2,1.1-2,1.5C607.7,393.5,606.8,393.6,605.8,393.6z M604.6,390.4c0.9,0,1.5-0.2,2-0.6s0.8-0.9,1-1.5s0.3-1.3,0.4-2
					c0-0.6,0-1.2,0-1.8c0-0.7-0.2-1.4-0.4-2s-0.6-1.1-1-1.5c-0.5-0.4-1.2-0.6-2-0.6s-1.5,0.2-1.9,0.5c-0.5,0.4-0.9,0.8-1.1,1.4
					c-0.3,0.6-0.4,1.1-0.4,1.7c0,0.4,0,0.7,0,1.2c0,0.4,0,0.8,0,1.2c0,0.6,0.2,1.2,0.4,1.8c0.2,0.6,0.6,1.1,1.1,1.5
					C603.2,390.2,603.8,390.4,604.6,390.4z"/>
				<path class="st12" d="M621.4,393.3c-0.2,0-0.3-0.1-0.4-0.2c-0.1-0.1-0.2-0.3-0.2-0.4s0-0.2,0.1-0.3l7.2-19.4
					c0.1-0.2,0.2-0.4,0.3-0.5s0.4-0.2,0.7-0.2h3.3c0.3,0,0.5,0.1,0.7,0.2s0.3,0.3,0.4,0.5l7.2,19.4c0,0.1,0,0.2,0,0.3
					c0,0.2-0.1,0.3-0.2,0.4c-0.1,0.1-0.3,0.2-0.4,0.2h-2.6c-0.3,0-0.5-0.1-0.6-0.2s-0.2-0.3-0.3-0.4l-1.4-3.7h-8.9l-1.4,3.7
					c0,0.1-0.1,0.2-0.3,0.4c-0.1,0.1-0.3,0.2-0.6,0.2H621.4z M627.4,385.7h6.8l-3.4-9.3L627.4,385.7z"/>
				<path class="st12" d="M643.9,399c-0.2,0-0.4-0.1-0.5-0.2s-0.2-0.3-0.2-0.5v-19.9c0-0.2,0.1-0.4,0.2-0.5c0.1-0.1,0.3-0.2,0.5-0.2
					h2.4c0.2,0,0.4,0.1,0.5,0.2s0.2,0.3,0.2,0.5v1.2c0.5-0.6,1.1-1.2,1.9-1.6s1.8-0.6,2.9-0.6c1.1,0,2,0.2,2.8,0.5s1.4,0.8,2,1.5
					c0.5,0.6,0.9,1.4,1.2,2.2c0.3,0.9,0.4,1.8,0.5,2.9c0,0.3,0,0.7,0,1.1s0,0.7,0,1.1c0,1-0.2,1.9-0.5,2.8s-0.7,1.6-1.2,2.2
					s-1.2,1.1-2,1.5s-1.7,0.5-2.8,0.5s-2-0.2-2.8-0.6s-1.4-0.9-1.9-1.5v6.8c0,0.2-0.1,0.4-0.2,0.5c-0.1,0.1-0.3,0.2-0.5,0.2h-2.5
					V399z M650.7,390.4c0.9,0,1.5-0.2,2-0.6s0.8-0.9,1-1.5s0.3-1.3,0.4-2c0-0.6,0-1.2,0-1.8c0-0.7-0.2-1.4-0.4-2s-0.6-1.1-1-1.5
					c-0.5-0.4-1.2-0.6-2-0.6s-1.5,0.2-2,0.6s-0.9,0.9-1.1,1.5c-0.2,0.6-0.4,1.2-0.4,1.8c0,0.4,0,0.7,0,1.1s0,0.8,0,1.2
					c0,0.6,0.2,1.2,0.4,1.7c0.3,0.6,0.6,1,1.1,1.4C649.2,390.2,649.9,390.4,650.7,390.4z"/>
				<path class="st12" d="M662.3,399c-0.2,0-0.4-0.1-0.5-0.2s-0.2-0.3-0.2-0.5v-19.9c0-0.2,0.1-0.4,0.2-0.5c0.1-0.1,0.3-0.2,0.5-0.2
					h2.4c0.2,0,0.4,0.1,0.5,0.2s0.2,0.3,0.2,0.5v1.2c0.5-0.6,1.1-1.2,1.9-1.6s1.8-0.6,2.9-0.6c1.1,0,2,0.2,2.8,0.5s1.4,0.8,2,1.5
					c0.5,0.6,0.9,1.4,1.2,2.2c0.3,0.9,0.4,1.8,0.5,2.9c0,0.3,0,0.7,0,1.1s0,0.7,0,1.1c0,1-0.2,1.9-0.5,2.8s-0.7,1.6-1.2,2.2
					s-1.2,1.1-2,1.5s-1.7,0.5-2.8,0.5s-2-0.2-2.8-0.6s-1.4-0.9-1.9-1.5v6.8c0,0.2-0.1,0.4-0.2,0.5c-0.1,0.1-0.3,0.2-0.5,0.2h-2.5
					V399z M669.1,390.4c0.9,0,1.5-0.2,2-0.6s0.8-0.9,1-1.5s0.3-1.3,0.4-2c0-0.6,0-1.2,0-1.8c0-0.7-0.2-1.4-0.4-2s-0.6-1.1-1-1.5
					c-0.5-0.4-1.2-0.6-2-0.6s-1.5,0.2-2,0.6s-0.9,0.9-1.1,1.5c-0.2,0.6-0.4,1.2-0.4,1.8c0,0.4,0,0.7,0,1.1s0,0.8,0,1.2
					c0,0.6,0.2,1.2,0.4,1.7c0.3,0.6,0.6,1,1.1,1.4C667.7,390.2,668.3,390.4,669.1,390.4z"/>
				<path class="st12" d="M680.8,393.3c-0.2,0-0.4-0.1-0.5-0.2s-0.2-0.3-0.2-0.5v-19.9c0-0.2,0.1-0.4,0.2-0.5
					c0.1-0.1,0.3-0.2,0.5-0.2h2.5c0.2,0,0.4,0.1,0.5,0.2s0.2,0.3,0.2,0.5v19.9c0,0.2-0.1,0.4-0.2,0.5c-0.1,0.1-0.3,0.2-0.5,0.2
					H680.8z"/>
				<path class="st12" d="M688.6,375.2c-0.2,0-0.4-0.1-0.5-0.2s-0.2-0.3-0.2-0.5v-2.2c0-0.2,0.1-0.4,0.2-0.5
					c0.1-0.1,0.3-0.2,0.5-0.2h2.7c0.2,0,0.4,0.1,0.5,0.2s0.2,0.3,0.2,0.5v2.2c0,0.2-0.1,0.4-0.2,0.5c-0.1,0.1-0.3,0.2-0.5,0.2H688.6
					z M688.7,393.3c-0.2,0-0.4-0.1-0.5-0.2s-0.2-0.3-0.2-0.5v-14.2c0-0.2,0.1-0.4,0.2-0.5c0.1-0.1,0.3-0.2,0.5-0.2h2.5
					c0.2,0,0.4,0.1,0.5,0.2s0.2,0.3,0.2,0.5v14.2c0,0.2-0.1,0.4-0.2,0.5c-0.1,0.1-0.3,0.2-0.5,0.2H688.7z"/>
				<path class="st12" d="M702.6,393.6c-1.4,0-2.7-0.3-3.8-0.8s-1.9-1.3-2.5-2.4c-0.6-1-0.9-2.3-1-3.7c0-0.3,0-0.7,0-1.2
					s0-0.9,0-1.2c0.1-1.5,0.4-2.7,1-3.7s1.5-1.8,2.5-2.4s2.4-0.8,3.8-0.8c1.3,0,2.4,0.2,3.3,0.5c0.9,0.4,1.6,0.8,2.2,1.4
					c0.6,0.5,1,1.1,1.3,1.7s0.4,1.1,0.5,1.6c0,0.2,0,0.4-0.2,0.5s-0.3,0.2-0.5,0.2h-2.6c-0.2,0-0.4,0-0.5-0.1s-0.2-0.2-0.3-0.4
					c-0.3-0.8-0.7-1.4-1.2-1.7c-0.5-0.3-1.1-0.5-1.9-0.5c-1,0-1.8,0.3-2.4,0.9s-0.9,1.6-0.9,3c0,0.8,0,1.5,0,2.1
					c0,1.4,0.4,2.4,0.9,3c0.6,0.6,1.4,0.9,2.4,0.9c0.8,0,1.4-0.2,1.9-0.5s0.9-0.9,1.2-1.7c0.1-0.2,0.2-0.4,0.3-0.5s0.3-0.1,0.5-0.1
					h2.6c0.2,0,0.4,0.1,0.5,0.2s0.2,0.3,0.2,0.5c0,0.4-0.1,0.8-0.3,1.2c-0.2,0.4-0.4,0.9-0.8,1.4c-0.4,0.5-0.8,0.9-1.4,1.3
					c-0.6,0.4-1.2,0.7-2,0.9C704.6,393.5,703.7,393.6,702.6,393.6z"/>
				<path class="st12" d="M717.5,393.6c-1,0-2-0.2-2.8-0.6s-1.5-1-2-1.6s-0.7-1.5-0.7-2.3c0-1.4,0.6-2.5,1.7-3.3s2.6-1.4,4.5-1.7
					l4.1-0.6v-0.6c0-0.8-0.2-1.5-0.6-2c-0.4-0.5-1.1-0.7-2.2-0.7c-0.7,0-1.3,0.1-1.8,0.4s-0.8,0.7-1,1.2c-0.2,0.3-0.4,0.4-0.7,0.4
					h-2.4c-0.2,0-0.4-0.1-0.5-0.2s-0.2-0.3-0.2-0.5c0-0.3,0.2-0.7,0.4-1.2s0.6-0.9,1.1-1.3s1.2-0.8,2-1.1c0.8-0.3,1.8-0.4,3-0.4
					c1.3,0,2.3,0.2,3.2,0.5s1.6,0.7,2.1,1.2s0.9,1.1,1.1,1.8c0.2,0.7,0.4,1.4,0.4,2.2v9.4c0,0.2-0.1,0.4-0.2,0.5
					c-0.1,0.1-0.3,0.2-0.5,0.2h-2.4c-0.2,0-0.4-0.1-0.5-0.2s-0.2-0.3-0.2-0.5v-1.2c-0.3,0.4-0.6,0.7-1,1.1c-0.4,0.3-1,0.6-1.6,0.8
					S718.4,393.6,717.5,393.6z M718.6,390.8c0.7,0,1.3-0.2,1.9-0.5c0.6-0.3,1-0.8,1.4-1.4s0.5-1.4,0.5-2.4v-0.6l-3,0.5
					c-1.2,0.2-2.1,0.5-2.6,0.9c-0.6,0.4-0.9,0.9-0.9,1.5c0,0.4,0.1,0.8,0.4,1.1c0.3,0.3,0.6,0.5,1,0.7S718.1,390.8,718.6,390.8z"/>
				<path class="st12" d="M737.2,393.3c-1.2,0-2.2-0.2-3-0.6s-1.4-1-1.8-1.9c-0.4-0.8-0.6-1.9-0.6-3.1v-6.8h-2.4
					c-0.2,0-0.4-0.1-0.5-0.2s-0.2-0.3-0.2-0.5v-1.7c0-0.2,0.1-0.4,0.2-0.5c0.1-0.1,0.3-0.2,0.5-0.2h2.4v-5c0-0.2,0.1-0.4,0.2-0.5
					c0.1-0.1,0.3-0.2,0.5-0.2h2.4c0.2,0,0.4,0.1,0.5,0.2s0.2,0.3,0.2,0.5v5h3.8c0.2,0,0.4,0.1,0.5,0.2s0.2,0.3,0.2,0.5v1.7
					c0,0.2-0.1,0.4-0.2,0.5c-0.1,0.1-0.3,0.2-0.5,0.2h-3.8v6.5c0,0.8,0.1,1.5,0.4,1.9c0.3,0.5,0.8,0.7,1.5,0.7h2.1
					c0.2,0,0.4,0.1,0.5,0.2s0.2,0.3,0.2,0.5v1.9c0,0.2-0.1,0.4-0.2,0.5c-0.1,0.1-0.3,0.2-0.5,0.2L737.2,393.3L737.2,393.3z"/>
				<path class="st12" d="M743.6,375.2c-0.2,0-0.4-0.1-0.5-0.2s-0.2-0.3-0.2-0.5v-2.2c0-0.2,0.1-0.4,0.2-0.5
					c0.1-0.1,0.3-0.2,0.5-0.2h2.7c0.2,0,0.4,0.1,0.5,0.2s0.2,0.3,0.2,0.5v2.2c0,0.2-0.1,0.4-0.2,0.5c-0.1,0.1-0.3,0.2-0.5,0.2H743.6
					z M743.7,393.3c-0.2,0-0.4-0.1-0.5-0.2s-0.2-0.3-0.2-0.5v-14.2c0-0.2,0.1-0.4,0.2-0.5c0.1-0.1,0.3-0.2,0.5-0.2h2.5
					c0.2,0,0.4,0.1,0.5,0.2s0.2,0.3,0.2,0.5v14.2c0,0.2-0.1,0.4-0.2,0.5c-0.1,0.1-0.3,0.2-0.5,0.2H743.7z"/>
				<path class="st12" d="M757.8,393.6c-1.6,0-2.9-0.3-4-0.8c-1.1-0.6-1.9-1.4-2.5-2.4s-0.9-2.2-1-3.6c0-0.4,0-0.8,0-1.3s0-1,0-1.3
					c0.1-1.4,0.4-2.6,1-3.6s1.4-1.8,2.5-2.4s2.4-0.8,4-0.8s2.9,0.3,4,0.8c1.1,0.6,1.9,1.3,2.5,2.4c0.6,1,0.9,2.2,1,3.6
					c0,0.4,0,0.8,0,1.3s0,1,0,1.3c-0.1,1.4-0.4,2.5-1,3.6s-1.4,1.8-2.5,2.4S759.4,393.6,757.8,393.6z M757.8,390.7
					c1.1,0,1.9-0.3,2.5-1s0.9-1.7,1-3c0-0.3,0-0.7,0-1.2s0-0.9,0-1.2c-0.1-1.3-0.4-2.3-1-2.9c-0.6-0.7-1.4-1-2.5-1s-1.9,0.3-2.5,1
					s-0.9,1.7-1,2.9c0,0.3,0,0.7,0,1.2s0,0.9,0,1.2c0.1,1.3,0.4,2.3,1,3S756.8,390.7,757.8,390.7z"/>
				<path class="st12" d="M769.4,393.3c-0.2,0-0.4-0.1-0.5-0.2s-0.2-0.3-0.2-0.5v-14.2c0-0.2,0.1-0.4,0.2-0.5
					c0.1-0.1,0.3-0.2,0.5-0.2h2.5c0.2,0,0.4,0.1,0.5,0.2s0.2,0.3,0.2,0.5v1.2c0.5-0.6,1.2-1.2,2-1.6s1.8-0.6,3-0.6s2.3,0.3,3.2,0.8
					c0.9,0.6,1.6,1.3,2.1,2.3s0.7,2.2,0.7,3.6v8.4c0,0.2-0.1,0.4-0.2,0.5c-0.1,0.1-0.3,0.2-0.5,0.2h-2.6c-0.2,0-0.4-0.1-0.5-0.2
					s-0.2-0.3-0.2-0.5v-8.2c0-1.2-0.3-2.1-0.9-2.7c-0.6-0.7-1.4-1-2.5-1c-1,0-1.9,0.3-2.5,1s-0.9,1.6-0.9,2.7v8.2
					c0,0.2-0.1,0.4-0.2,0.5c-0.1,0.1-0.3,0.2-0.5,0.2h-2.7V393.3z"/>
			</g>
		</g>
		<circle class="st12" cx="567.7" cy="434.8" r="9.9"/>
		<circle class="st12" cx="567.7" cy="470.3" r="9.9"/>
		<circle class="st12" cx="567.7" cy="505.8" r="9.9"/>
		<g>
			<g>
				<path class="st12" d="M836.1,390.3c-0.1,0-0.2,0-0.2-0.1s-0.1-0.1-0.1-0.2v-0.1l3.9-10.3c0-0.1,0.1-0.2,0.2-0.3s0.2-0.1,0.4-0.1
					h1.7c0.2,0,0.3,0,0.4,0.1c0.1,0.1,0.1,0.2,0.2,0.3l3.9,10.3c0,0.1,0,0.1,0,0.1c0,0.1,0,0.2-0.1,0.2c-0.1,0.1-0.1,0.1-0.2,0.1
					h-1.4c-0.1,0-0.3,0-0.3-0.1s-0.1-0.1-0.1-0.2l-0.8-2h-4.8l-0.8,2c0,0.1-0.1,0.1-0.1,0.2s-0.2,0.1-0.3,0.1H836.1z M839.2,386.2
					h3.6l-1.8-4.9L839.2,386.2z"/>
				<path class="st12" d="M848,393.3c-0.1,0-0.2,0-0.3-0.1s-0.1-0.2-0.1-0.3v-10.6c0-0.1,0-0.2,0.1-0.3c0.1-0.1,0.2-0.1,0.3-0.1h1.3
					c0.1,0,0.2,0,0.3,0.1s0.1,0.2,0.1,0.3v0.6c0.3-0.3,0.6-0.6,1-0.8s0.9-0.3,1.6-0.3c0.6,0,1.1,0.1,1.5,0.3c0.4,0.2,0.8,0.4,1,0.8
					s0.5,0.7,0.6,1.2s0.2,1,0.3,1.5c0,0.2,0,0.4,0,0.6s0,0.4,0,0.6c0,0.5-0.1,1-0.2,1.5c-0.1,0.5-0.4,0.8-0.6,1.2
					c-0.3,0.3-0.6,0.6-1,0.8s-0.9,0.3-1.5,0.3s-1.1-0.1-1.5-0.3c-0.4-0.2-0.7-0.5-1-0.8v3.6c0,0.1,0,0.2-0.1,0.3
					c-0.1,0.1-0.2,0.1-0.3,0.1H848V393.3z M851.7,388.7c0.5,0,0.8-0.1,1.1-0.3c0.3-0.2,0.4-0.5,0.6-0.8c0.1-0.3,0.2-0.7,0.2-1.1
					c0-0.3,0-0.6,0-1s-0.1-0.7-0.2-1.1c-0.1-0.3-0.3-0.6-0.6-0.8c-0.3-0.2-0.6-0.3-1.1-0.3c-0.4,0-0.8,0.1-1.1,0.3
					c-0.3,0.2-0.5,0.5-0.6,0.8s-0.2,0.6-0.2,1c0,0.2,0,0.4,0,0.6s0,0.4,0,0.6c0,0.3,0.1,0.6,0.2,0.9s0.3,0.5,0.6,0.7
					C850.9,388.6,851.2,388.7,851.7,388.7z"/>
				<path class="st12" d="M857.9,393.3c-0.1,0-0.2,0-0.3-0.1s-0.1-0.2-0.1-0.3v-10.6c0-0.1,0-0.2,0.1-0.3c0.1-0.1,0.2-0.1,0.3-0.1
					h1.3c0.1,0,0.2,0,0.3,0.1s0.1,0.2,0.1,0.3v0.6c0.3-0.3,0.6-0.6,1-0.8s0.9-0.3,1.6-0.3c0.6,0,1.1,0.1,1.5,0.3
					c0.4,0.2,0.8,0.4,1,0.8s0.5,0.7,0.6,1.2s0.2,1,0.3,1.5c0,0.2,0,0.4,0,0.6s0,0.4,0,0.6c0,0.5-0.1,1-0.2,1.5
					c-0.1,0.5-0.4,0.8-0.6,1.2c-0.3,0.3-0.6,0.6-1,0.8s-0.9,0.3-1.5,0.3s-1.1-0.1-1.5-0.3c-0.4-0.2-0.7-0.5-1-0.8v3.6
					c0,0.1,0,0.2-0.1,0.3c-0.1,0.1-0.2,0.1-0.3,0.1h-1.5V393.3z M861.5,388.7c0.5,0,0.8-0.1,1.1-0.3c0.3-0.2,0.4-0.5,0.6-0.8
					c0.1-0.3,0.2-0.7,0.2-1.1c0-0.3,0-0.6,0-1s-0.1-0.7-0.2-1.1c-0.1-0.3-0.3-0.6-0.6-0.8c-0.3-0.2-0.6-0.3-1.1-0.3
					c-0.4,0-0.8,0.1-1.1,0.3c-0.3,0.2-0.5,0.5-0.6,0.8s-0.2,0.6-0.2,1c0,0.2,0,0.4,0,0.6s0,0.4,0,0.6c0,0.3,0.1,0.6,0.2,0.9
					s0.3,0.5,0.6,0.7C860.7,388.6,861.1,388.7,861.5,388.7z"/>
				<path class="st12" d="M867.7,390.3c-0.1,0-0.2,0-0.3-0.1s-0.1-0.2-0.1-0.3v-10.6c0-0.1,0-0.2,0.1-0.3c0.1-0.1,0.2-0.1,0.3-0.1
					h1.3c0.1,0,0.2,0,0.3,0.1s0.1,0.2,0.1,0.3v10.6c0,0.1,0,0.2-0.1,0.3c-0.1,0.1-0.2,0.1-0.3,0.1H867.7z"/>
				<path class="st12" d="M873,393.3c-0.1,0-0.2,0-0.2-0.1c-0.1-0.1-0.1-0.1-0.1-0.2v-0.1c0,0,0-0.1,0.1-0.1l1.2-3l-3.1-7.2
					c0-0.1-0.1-0.2-0.1-0.2c0-0.1,0-0.2,0.1-0.2c0.1-0.1,0.1-0.1,0.2-0.1h1.3c0.1,0,0.2,0,0.3,0.1s0.1,0.1,0.1,0.2l2.1,5.2l2.2-5.2
					c0-0.1,0.1-0.2,0.1-0.2c0.1-0.1,0.2-0.1,0.3-0.1h1.3c0.1,0,0.2,0,0.2,0.1s0.1,0.1,0.1,0.2s0,0.1-0.1,0.3l-4.5,10.5
					c0,0.1-0.1,0.2-0.2,0.2c-0.1,0.1-0.2,0.1-0.3,0.1h-1V393.3z"/>
			</g>
		</g>
		<line class="st11" x1="592" y1="434.8" x2="701.1" y2="434.8"/>
		<line class="st11" x1="592" y1="470.3" x2="655.5" y2="470.3"/>
		<line class="st11" x1="592" y1="505.8" x2="764.4" y2="505.8"/>
		<line class="st11" x1="564" y1="555.8" x2="899.5" y2="555.8"/>
		<line class="st11" x1="564" y1="572.3" x2="899.5" y2="572.3"/>
		<line class="st11" x1="564" y1="588.8" x2="899.5" y2="588.8"/>
		<line class="st11" x1="564" y1="605.3" x2="808.4" y2="605.3"/>
		<line class="st11" x1="564" y1="621.8" x2="739.9" y2="621.8"/>
	</g>
	<g>
		<g>
			<path d="M89.4,776.1c-0.2,0-0.3-0.1-0.4-0.2s-0.2-0.3-0.2-0.4v-14.4H84c-0.2,0-0.3-0.1-0.4-0.2s-0.2-0.3-0.2-0.4v-1.9
				c0-0.2,0.1-0.3,0.2-0.5s0.3-0.2,0.4-0.2h13.3c0.2,0,0.3,0.1,0.5,0.2c0.1,0.1,0.2,0.3,0.2,0.5v1.9c0,0.2-0.1,0.3-0.2,0.4
				c-0.1,0.1-0.3,0.2-0.5,0.2h-4.8v14.4c0,0.2-0.1,0.3-0.2,0.4c-0.1,0.1-0.3,0.2-0.5,0.2H89.4z"/>
			<path d="M100.8,776.1c-0.2,0-0.3-0.1-0.4-0.2s-0.2-0.3-0.2-0.4v-17.2c0-0.2,0.1-0.3,0.2-0.4c0.1-0.1,0.3-0.2,0.4-0.2h2.3
				c0.2,0,0.3,0.1,0.5,0.2c0.1,0.1,0.2,0.3,0.2,0.4v5.9c0.5-0.6,1-1,1.7-1.4s1.5-0.5,2.5-0.5c1.1,0,2,0.2,2.8,0.7s1.4,1.1,1.8,2
				s0.6,1.9,0.6,3.1v7.3c0,0.2-0.1,0.3-0.2,0.4c-0.1,0.1-0.3,0.2-0.4,0.2h-2.3c-0.2,0-0.3-0.1-0.4-0.2s-0.2-0.3-0.2-0.4v-7.2
				c0-1-0.2-1.8-0.7-2.4c-0.5-0.6-1.2-0.9-2.1-0.9s-1.6,0.3-2.2,0.9c-0.5,0.6-0.8,1.4-0.8,2.4v7.2c0,0.2-0.1,0.3-0.2,0.4
				s-0.3,0.2-0.5,0.2h-2.4V776.1z"/>
			<path d="M120.4,776.4c-0.9,0-1.7-0.2-2.4-0.5c-0.7-0.4-1.3-0.8-1.7-1.4c-0.4-0.6-0.6-1.3-0.6-2c0-1.2,0.5-2.2,1.5-2.9
				s2.3-1.2,3.9-1.4l3.6-0.5V767c0-0.7-0.2-1.3-0.5-1.7c-0.4-0.4-1-0.6-1.9-0.6c-0.6,0-1.1,0.1-1.5,0.4c-0.4,0.3-0.7,0.6-0.9,1
				c-0.1,0.2-0.3,0.3-0.6,0.3h-2.1c-0.2,0-0.3-0.1-0.4-0.2c-0.1-0.1-0.1-0.2-0.1-0.4c0-0.3,0.1-0.6,0.3-1c0.2-0.4,0.5-0.8,1-1.2
				s1-0.7,1.7-0.9c0.7-0.3,1.6-0.4,2.6-0.4c1.1,0,2,0.1,2.8,0.4s1.4,0.6,1.8,1.1c0.5,0.5,0.8,1,1,1.6s0.3,1.2,0.3,1.9v8.2
				c0,0.2-0.1,0.3-0.2,0.4s-0.3,0.2-0.4,0.2h-2.1c-0.2,0-0.3-0.1-0.5-0.2s-0.2-0.3-0.2-0.4v-1c-0.2,0.3-0.5,0.6-0.9,0.9
				c-0.4,0.3-0.8,0.5-1.4,0.7C121.8,776.3,121.2,776.4,120.4,776.4z M121.3,773.9c0.6,0,1.2-0.1,1.7-0.4c0.5-0.3,0.9-0.7,1.2-1.2
				c0.3-0.5,0.4-1.2,0.4-2.1v-0.5l-2.6,0.4c-1,0.2-1.8,0.4-2.3,0.8c-0.5,0.3-0.8,0.8-0.8,1.3c0,0.4,0.1,0.7,0.4,1
				c0.2,0.3,0.5,0.5,0.9,0.6C120.5,773.8,120.9,773.9,121.3,773.9z"/>
			<path d="M132,776.1c-0.2,0-0.3-0.1-0.4-0.2c-0.1-0.1-0.2-0.3-0.2-0.4v-12.3c0-0.2,0.1-0.3,0.2-0.4c0.1-0.1,0.3-0.2,0.4-0.2h2.1
				c0.2,0,0.3,0.1,0.4,0.2c0.1,0.1,0.2,0.3,0.2,0.4v1.1c0.5-0.6,1-1,1.7-1.4s1.6-0.6,2.6-0.6c1.1,0,2,0.2,2.8,0.7s1.4,1.1,1.8,2
				c0.4,0.9,0.6,1.9,0.6,3.1v7.3c0,0.2-0.1,0.3-0.2,0.4c-0.1,0.1-0.3,0.2-0.4,0.2h-2.3c-0.2,0-0.3-0.1-0.4-0.2
				c-0.1-0.1-0.2-0.3-0.2-0.4v-7.2c0-1-0.2-1.8-0.7-2.4c-0.5-0.6-1.2-0.9-2.1-0.9c-0.9,0-1.6,0.3-2.2,0.9c-0.5,0.6-0.8,1.4-0.8,2.4
				v7.2c0,0.2-0.1,0.3-0.2,0.4s-0.3,0.2-0.4,0.2H132V776.1z"/>
			<path d="M148.2,776.1c-0.2,0-0.3-0.1-0.4-0.2s-0.2-0.3-0.2-0.4v-17.2c0-0.2,0.1-0.3,0.2-0.4c0.1-0.1,0.3-0.2,0.4-0.2h2.1
				c0.2,0,0.3,0.1,0.5,0.2c0.1,0.1,0.2,0.3,0.2,0.4v8.9l4.4-4.1c0.2-0.1,0.3-0.2,0.4-0.3c0.1-0.1,0.3-0.1,0.5-0.1h2.4
				c0.2,0,0.3,0.1,0.4,0.2c0.1,0.1,0.2,0.2,0.2,0.4c0,0.1,0,0.1-0.1,0.2s-0.1,0.2-0.2,0.2l-5.4,5l6,6.4c0.2,0.2,0.3,0.3,0.3,0.4
				c0,0.2-0.1,0.3-0.2,0.4c-0.1,0.1-0.2,0.2-0.4,0.2h-2.5c-0.3,0-0.4,0-0.6-0.1s-0.2-0.2-0.4-0.3l-5-5.2v5c0,0.2-0.1,0.3-0.2,0.4
				s-0.3,0.2-0.5,0.2L148.2,776.1L148.2,776.1z"/>
			<path d="M170.3,781c-0.1,0-0.3-0.1-0.4-0.2c-0.1-0.1-0.2-0.2-0.2-0.4c0-0.1,0-0.1,0-0.2s0-0.1,0.1-0.2l2-4.8l-5-11.8
				c-0.1-0.2-0.1-0.3-0.1-0.4c0-0.2,0.1-0.3,0.2-0.4c0.1-0.1,0.2-0.2,0.4-0.2h2.1c0.2,0,0.4,0.1,0.5,0.2c0.1,0.1,0.2,0.2,0.2,0.3
				l3.5,8.5l3.6-8.5c0.1-0.1,0.1-0.3,0.2-0.4c0.1-0.1,0.3-0.1,0.5-0.1h2.1c0.1,0,0.3,0.1,0.4,0.2c0.1,0.1,0.2,0.2,0.2,0.4
				c0,0.1,0,0.2-0.1,0.4l-7.4,17c-0.1,0.1-0.2,0.3-0.3,0.4c-0.1,0.1-0.3,0.1-0.5,0.1h-2V781z"/>
			<path d="M188.7,776.4c-1.4,0-2.6-0.2-3.5-0.7s-1.7-1.2-2.2-2.1c-0.5-0.9-0.8-1.9-0.8-3.1c0-0.3,0-0.7,0-1.1s0-0.8,0-1.1
				c0.1-1.2,0.4-2.2,0.9-3.1s1.2-1.6,2.2-2c0.9-0.5,2.1-0.7,3.4-0.7c1.4,0,2.5,0.2,3.4,0.7s1.7,1.2,2.2,2c0.5,0.9,0.8,1.9,0.9,3.1
				c0,0.3,0,0.7,0,1.1s0,0.8,0,1.1c-0.1,1.2-0.4,2.2-0.8,3.1c-0.5,0.9-1.2,1.6-2.2,2.1C191.3,776.1,190.1,776.4,188.7,776.4z
				 M188.7,773.8c0.9,0,1.6-0.3,2.1-0.9c0.5-0.6,0.8-1.4,0.8-2.6c0-0.3,0-0.6,0-1s0-0.8,0-1c-0.1-1.1-0.3-2-0.8-2.5
				c-0.5-0.6-1.2-0.9-2.1-0.9s-1.6,0.3-2.1,0.9c-0.5,0.6-0.8,1.4-0.8,2.5c0,0.3,0,0.6,0,1s0,0.8,0,1c0.1,1.1,0.3,2,0.8,2.6
				C187.1,773.5,187.8,773.8,188.7,773.8z"/>
			<path d="M203.2,776.4c-1.1,0-2-0.2-2.7-0.7c-0.8-0.5-1.4-1.2-1.8-2c-0.4-0.9-0.6-1.9-0.6-3.1v-7.3c0-0.2,0.1-0.3,0.2-0.4
				c0.1-0.1,0.3-0.2,0.4-0.2h2.3c0.2,0,0.3,0.1,0.5,0.2c0.1,0.1,0.2,0.3,0.2,0.4v7.2c0,2.1,0.9,3.2,2.8,3.2c0.9,0,1.6-0.3,2.1-0.9
				c0.5-0.6,0.8-1.4,0.8-2.4v-7.2c0-0.2,0.1-0.3,0.2-0.4c0.1-0.1,0.3-0.2,0.4-0.2h2.3c0.2,0,0.3,0.1,0.4,0.2
				c0.1,0.1,0.2,0.3,0.2,0.4v12.3c0,0.2-0.1,0.3-0.2,0.4c-0.1,0.1-0.3,0.2-0.4,0.2h-2.1c-0.2,0-0.3-0.1-0.5-0.2
				c-0.1-0.1-0.2-0.3-0.2-0.4v-1.1c-0.5,0.6-1,1.1-1.7,1.4C205.1,776.2,204.2,776.4,203.2,776.4z"/>
			<path d="M222.3,776.1c-0.2,0-0.3-0.1-0.4-0.2c-0.1-0.1-0.2-0.3-0.2-0.4v-10.1h-2.1c-0.2,0-0.3-0.1-0.4-0.2
				c-0.1-0.1-0.2-0.3-0.2-0.4v-1.5c0-0.2,0.1-0.3,0.2-0.4c0.1-0.1,0.3-0.2,0.4-0.2h2.1v-1.1c0-1,0.2-1.9,0.6-2.6
				c0.4-0.7,0.9-1.2,1.7-1.5c0.7-0.3,1.7-0.5,2.8-0.5h1.8c0.2,0,0.3,0.1,0.5,0.2c0.1,0.1,0.2,0.3,0.2,0.4v1.5c0,0.2-0.1,0.3-0.2,0.4
				c-0.1,0.1-0.3,0.2-0.5,0.2h-1.7c-0.7,0-1.2,0.2-1.4,0.5c-0.3,0.3-0.4,0.8-0.4,1.5v0.9h3.2c0.2,0,0.3,0.1,0.5,0.2s0.2,0.3,0.2,0.4
				v1.5c0,0.2-0.1,0.3-0.2,0.4c-0.1,0.1-0.3,0.2-0.5,0.2h-3.2v10.1c0,0.2-0.1,0.3-0.2,0.4c-0.1,0.1-0.3,0.2-0.4,0.2L222.3,776.1
				L222.3,776.1z"/>
			<path d="M237,776.4c-1.4,0-2.6-0.2-3.5-0.7s-1.7-1.2-2.2-2.1c-0.5-0.9-0.8-1.9-0.8-3.1c0-0.3,0-0.7,0-1.1s0-0.8,0-1.1
				c0.1-1.2,0.4-2.2,0.9-3.1s1.2-1.6,2.2-2c0.9-0.5,2.1-0.7,3.4-0.7c1.4,0,2.5,0.2,3.4,0.7s1.7,1.2,2.2,2c0.5,0.9,0.8,1.9,0.9,3.1
				c0,0.3,0,0.7,0,1.1s0,0.8,0,1.1c-0.1,1.2-0.4,2.2-0.8,3.1c-0.5,0.9-1.2,1.6-2.2,2.1C239.5,776.1,238.4,776.4,237,776.4z
				 M237,773.8c0.9,0,1.6-0.3,2.1-0.9c0.5-0.6,0.8-1.4,0.8-2.6c0-0.3,0-0.6,0-1s0-0.8,0-1c-0.1-1.1-0.3-2-0.8-2.5
				c-0.5-0.6-1.2-0.9-2.1-0.9s-1.6,0.3-2.1,0.9c-0.5,0.6-0.8,1.4-0.8,2.5c0,0.3,0,0.6,0,1s0,0.8,0,1c0.1,1.1,0.3,2,0.8,2.6
				C235.4,773.5,236.1,773.8,237,773.8z"/>
			<path d="M247,776.1c-0.2,0-0.3-0.1-0.4-0.2c-0.1-0.1-0.2-0.3-0.2-0.4v-12.2c0-0.2,0.1-0.3,0.2-0.5c0.1-0.1,0.3-0.2,0.4-0.2h2.1
				c0.2,0,0.3,0.1,0.5,0.2s0.2,0.3,0.2,0.5v1.1c0.4-0.6,0.9-1,1.5-1.3s1.4-0.4,2.2-0.4h1.1c0.2,0,0.3,0.1,0.5,0.2s0.2,0.3,0.2,0.4
				v1.9c0,0.2-0.1,0.3-0.2,0.4s-0.3,0.2-0.5,0.2h-2c-0.8,0-1.5,0.2-1.9,0.7c-0.5,0.5-0.7,1.1-0.7,1.9v7.2c0,0.2-0.1,0.3-0.2,0.4
				s-0.3,0.2-0.5,0.2H247V776.1z"/>
			<path d="M265.6,781c-0.1,0-0.3-0.1-0.4-0.2c-0.1-0.1-0.2-0.2-0.2-0.4c0-0.1,0-0.1,0-0.2s0-0.1,0.1-0.2l2-4.8l-5-11.8
				c-0.1-0.2-0.1-0.3-0.1-0.4c0-0.2,0.1-0.3,0.2-0.4c0.1-0.1,0.2-0.2,0.4-0.2h2.1c0.2,0,0.4,0.1,0.5,0.2c0.1,0.1,0.2,0.2,0.2,0.3
				l3.5,8.5l3.6-8.5c0.1-0.1,0.1-0.3,0.2-0.4c0.1-0.1,0.3-0.1,0.5-0.1h2.1c0.1,0,0.3,0.1,0.4,0.2c0.1,0.1,0.2,0.2,0.2,0.4
				c0,0.1,0,0.2-0.1,0.4l-7.4,17c-0.1,0.1-0.2,0.3-0.3,0.4c-0.1,0.1-0.3,0.1-0.5,0.1h-2V781z"/>
			<path d="M284.1,776.4c-1.4,0-2.6-0.2-3.5-0.7s-1.7-1.2-2.2-2.1c-0.5-0.9-0.8-1.9-0.8-3.1c0-0.3,0-0.7,0-1.1s0-0.8,0-1.1
				c0.1-1.2,0.4-2.2,0.9-3.1s1.2-1.6,2.2-2c0.9-0.5,2.1-0.7,3.4-0.7c1.4,0,2.5,0.2,3.4,0.7s1.7,1.2,2.2,2c0.5,0.9,0.8,1.9,0.9,3.1
				c0,0.3,0,0.7,0,1.1s0,0.8,0,1.1c-0.1,1.2-0.4,2.2-0.8,3.1c-0.5,0.9-1.2,1.6-2.2,2.1C286.6,776.1,285.5,776.4,284.1,776.4z
				 M284.1,773.8c0.9,0,1.6-0.3,2.1-0.9c0.5-0.6,0.8-1.4,0.8-2.6c0-0.3,0-0.6,0-1s0-0.8,0-1c-0.1-1.1-0.3-2-0.8-2.5
				c-0.5-0.6-1.2-0.9-2.1-0.9s-1.6,0.3-2.1,0.9c-0.5,0.6-0.8,1.4-0.8,2.5c0,0.3,0,0.6,0,1s0,0.8,0,1c0.1,1.1,0.3,2,0.8,2.6
				C282.5,773.5,283.2,773.8,284.1,773.8z"/>
			<path d="M298.5,776.4c-1.1,0-2-0.2-2.7-0.7c-0.8-0.5-1.4-1.2-1.8-2c-0.4-0.9-0.6-1.9-0.6-3.1v-7.3c0-0.2,0.1-0.3,0.2-0.4
				c0.1-0.1,0.3-0.2,0.4-0.2h2.3c0.2,0,0.3,0.1,0.5,0.2c0.1,0.1,0.2,0.3,0.2,0.4v7.2c0,2.1,0.9,3.2,2.8,3.2c0.9,0,1.6-0.3,2.1-0.9
				c0.5-0.6,0.8-1.4,0.8-2.4v-7.2c0-0.2,0.1-0.3,0.2-0.4c0.1-0.1,0.3-0.2,0.4-0.2h2.3c0.2,0,0.3,0.1,0.4,0.2
				c0.1,0.1,0.2,0.3,0.2,0.4v12.3c0,0.2-0.1,0.3-0.2,0.4c-0.1,0.1-0.3,0.2-0.4,0.2h-2.1c-0.2,0-0.3-0.1-0.5-0.2
				c-0.1-0.1-0.2-0.3-0.2-0.4v-1.1c-0.5,0.6-1,1.1-1.7,1.4C300.4,776.2,299.6,776.4,298.5,776.4z"/>
			<path d="M310.3,776.1c-0.2,0-0.3-0.1-0.4-0.2c-0.1-0.1-0.2-0.3-0.2-0.4v-12.2c0-0.2,0.1-0.3,0.2-0.5c0.1-0.1,0.3-0.2,0.4-0.2h2.1
				c0.2,0,0.3,0.1,0.5,0.2s0.2,0.3,0.2,0.5v1.1c0.4-0.6,0.9-1,1.5-1.3s1.4-0.4,2.2-0.4h1.1c0.2,0,0.3,0.1,0.5,0.2s0.2,0.3,0.2,0.4
				v1.9c0,0.2-0.1,0.3-0.2,0.4s-0.3,0.2-0.5,0.2h-2c-0.8,0-1.5,0.2-1.9,0.7c-0.5,0.5-0.7,1.1-0.7,1.9v7.2c0,0.2-0.1,0.3-0.2,0.4
				s-0.3,0.2-0.5,0.2h-2.3V776.1z"/>
			<path d="M327,760.3c-0.2,0-0.3-0.1-0.5-0.2s-0.2-0.3-0.2-0.5v-1.9c0-0.2,0.1-0.3,0.2-0.4c0.1-0.1,0.3-0.2,0.5-0.2h2.4
				c0.2,0,0.3,0.1,0.5,0.2c0.1,0.1,0.2,0.3,0.2,0.4v1.9c0,0.2-0.1,0.3-0.2,0.5s-0.3,0.2-0.5,0.2H327z M327.1,776.1
				c-0.2,0-0.3-0.1-0.4-0.2c-0.1-0.1-0.2-0.3-0.2-0.4v-12.3c0-0.2,0.1-0.3,0.2-0.4c0.1-0.1,0.3-0.2,0.4-0.2h2.2
				c0.2,0,0.3,0.1,0.5,0.2c0.1,0.1,0.2,0.3,0.2,0.4v12.3c0,0.2-0.1,0.3-0.2,0.4c-0.1,0.1-0.3,0.2-0.5,0.2H327.1z"/>
			<path d="M333.9,776.1c-0.2,0-0.3-0.1-0.4-0.2c-0.1-0.1-0.2-0.3-0.2-0.4v-12.3c0-0.2,0.1-0.3,0.2-0.4c0.1-0.1,0.3-0.2,0.4-0.2h2.1
				c0.2,0,0.3,0.1,0.4,0.2c0.1,0.1,0.2,0.3,0.2,0.4v1.1c0.5-0.6,1-1,1.7-1.4s1.6-0.6,2.6-0.6c1.1,0,2,0.2,2.8,0.7s1.4,1.1,1.8,2
				s0.6,1.9,0.6,3.1v7.3c0,0.2-0.1,0.3-0.2,0.4c-0.1,0.1-0.3,0.2-0.4,0.2h-2.3c-0.2,0-0.3-0.1-0.4-0.2c-0.1-0.1-0.2-0.3-0.2-0.4
				v-7.2c0-1-0.2-1.8-0.7-2.4c-0.5-0.6-1.2-0.9-2.1-0.9s-1.6,0.3-2.2,0.9c-0.5,0.6-0.8,1.4-0.8,2.4v7.2c0,0.2-0.1,0.3-0.2,0.4
				s-0.3,0.2-0.4,0.2h-2.3V776.1z"/>
			<path d="M355.6,776.1c-1,0-1.9-0.2-2.6-0.5c-0.7-0.4-1.2-0.9-1.6-1.6c-0.3-0.7-0.5-1.6-0.5-2.7v-5.9h-2.1c-0.2,0-0.3-0.1-0.4-0.2
				c-0.1-0.1-0.2-0.3-0.2-0.4v-1.5c0-0.2,0.1-0.3,0.2-0.4c0.1-0.1,0.3-0.2,0.4-0.2h2.1v-4.3c0-0.2,0.1-0.3,0.2-0.4
				c0.1-0.1,0.3-0.2,0.5-0.2h2.1c0.2,0,0.3,0.1,0.4,0.2c0.1,0.1,0.2,0.3,0.2,0.4v4.3h3.2c0.2,0,0.3,0.1,0.4,0.2
				c0.1,0.1,0.2,0.3,0.2,0.4v1.5c0,0.2-0.1,0.3-0.2,0.4c-0.1,0.1-0.3,0.2-0.4,0.2h-3.2v5.6c0,0.7,0.1,1.3,0.4,1.7s0.7,0.6,1.3,0.6
				h1.8c0.2,0,0.3,0.1,0.4,0.2c0.1,0.1,0.2,0.3,0.2,0.4v1.6c0,0.2-0.1,0.3-0.2,0.4c-0.1,0.1-0.3,0.2-0.4,0.2H355.6z"/>
			<path d="M366.5,776.4c-1.9,0-3.4-0.6-4.6-1.7c-1.1-1.1-1.7-2.7-1.8-4.7c0-0.2,0-0.4,0-0.7s0-0.5,0-0.6c0.1-1.3,0.4-2.4,0.9-3.4
				s1.3-1.7,2.2-2.2c0.9-0.5,2-0.8,3.3-0.8c1.4,0,2.6,0.3,3.5,0.9c1,0.6,1.7,1.4,2.2,2.4s0.7,2.2,0.7,3.6v0.5c0,0.2-0.1,0.3-0.2,0.4
				s-0.3,0.2-0.5,0.2h-8.6c0,0.1,0,0.2,0,0.2c0,0.6,0.1,1.2,0.4,1.7c0.2,0.5,0.5,0.9,1,1.2c0.4,0.3,0.9,0.5,1.5,0.5
				c0.5,0,0.9-0.1,1.2-0.2s0.6-0.3,0.8-0.5s0.4-0.3,0.4-0.5c0.2-0.2,0.3-0.3,0.4-0.4c0.1,0,0.2-0.1,0.4-0.1h2.2
				c0.2,0,0.3,0.1,0.4,0.2c0.1,0.1,0.2,0.2,0.1,0.4c0,0.3-0.2,0.6-0.4,1c-0.3,0.4-0.7,0.8-1.2,1.2s-1.1,0.7-1.9,0.9
				S367.5,776.4,366.5,776.4z M363.7,768.2h5.7v-0.1c0-0.7-0.1-1.3-0.3-1.8c-0.2-0.5-0.6-0.9-1-1.2s-1-0.4-1.6-0.4s-1.1,0.1-1.6,0.4
				c-0.4,0.3-0.8,0.7-1,1.2C363.8,766.8,363.7,767.4,363.7,768.2L363.7,768.2z"/>
			<path d="M376.3,776.1c-0.2,0-0.3-0.1-0.4-0.2c-0.1-0.1-0.2-0.3-0.2-0.4v-12.2c0-0.2,0.1-0.3,0.2-0.5c0.1-0.1,0.3-0.2,0.4-0.2h2.1
				c0.2,0,0.3,0.1,0.5,0.2s0.2,0.3,0.2,0.5v1.1c0.4-0.6,0.9-1,1.5-1.3s1.4-0.4,2.2-0.4h1.1c0.2,0,0.3,0.1,0.5,0.2s0.2,0.3,0.2,0.4
				v1.9c0,0.2-0.1,0.3-0.2,0.4s-0.3,0.2-0.5,0.2h-2c-0.8,0-1.5,0.2-1.9,0.7c-0.5,0.5-0.7,1.1-0.7,1.9v7.2c0,0.2-0.1,0.3-0.2,0.4
				s-0.3,0.2-0.5,0.2h-2.3V776.1z"/>
			<path d="M392.4,776.4c-1.9,0-3.4-0.6-4.6-1.7c-1.1-1.1-1.7-2.7-1.8-4.7c0-0.2,0-0.4,0-0.7s0-0.5,0-0.6c0.1-1.3,0.4-2.4,0.9-3.4
				s1.3-1.7,2.2-2.2c0.9-0.5,2-0.8,3.3-0.8c1.4,0,2.6,0.3,3.5,0.9c1,0.6,1.7,1.4,2.2,2.4s0.7,2.2,0.7,3.6v0.5c0,0.2-0.1,0.3-0.2,0.4
				s-0.3,0.2-0.5,0.2h-8.6c0,0.1,0,0.2,0,0.2c0,0.6,0.1,1.2,0.4,1.7c0.2,0.5,0.5,0.9,1,1.2c0.4,0.3,0.9,0.5,1.5,0.5
				c0.5,0,0.9-0.1,1.2-0.2s0.6-0.3,0.8-0.5s0.4-0.3,0.4-0.5c0.2-0.2,0.3-0.3,0.4-0.4c0.1,0,0.2-0.1,0.4-0.1h2.2
				c0.2,0,0.3,0.1,0.4,0.2c0.1,0.1,0.2,0.2,0.1,0.4c0,0.3-0.2,0.6-0.4,1c-0.3,0.4-0.7,0.8-1.2,1.2s-1.1,0.7-1.9,0.9
				S393.3,776.4,392.4,776.4z M389.5,768.2h5.7v-0.1c0-0.7-0.1-1.3-0.3-1.8c-0.2-0.5-0.6-0.9-1-1.2s-1-0.4-1.6-0.4s-1.1,0.1-1.6,0.4
				c-0.4,0.3-0.8,0.7-1,1.2C389.6,766.8,389.5,767.4,389.5,768.2L389.5,768.2z"/>
			<path d="M406.7,776.4c-1,0-1.9-0.1-2.7-0.4c-0.7-0.2-1.3-0.5-1.8-0.9s-0.8-0.7-1-1.1c-0.2-0.4-0.3-0.7-0.4-0.9
				c0-0.2,0-0.3,0.2-0.5c0.1-0.1,0.3-0.2,0.4-0.2h2.1c0.1,0,0.1,0,0.2,0s0.1,0.1,0.2,0.2c0.2,0.2,0.5,0.4,0.7,0.6
				c0.3,0.2,0.5,0.4,0.9,0.5c0.3,0.1,0.8,0.2,1.3,0.2c0.7,0,1.2-0.1,1.7-0.4c0.5-0.3,0.7-0.7,0.7-1.2c0-0.4-0.1-0.7-0.3-0.9
				s-0.6-0.4-1.1-0.6c-0.5-0.2-1.3-0.4-2.3-0.6c-1-0.2-1.8-0.5-2.4-0.9c-0.6-0.3-1.1-0.8-1.4-1.3s-0.5-1.1-0.5-1.8s0.2-1.3,0.6-1.9
				c0.4-0.6,1-1.1,1.8-1.5s1.8-0.6,3-0.6c0.9,0,1.8,0.1,2.4,0.4c0.7,0.2,1.3,0.5,1.7,0.9c0.5,0.3,0.8,0.7,1.1,1.1s0.4,0.7,0.4,0.9
				s0,0.3-0.2,0.5c-0.1,0.1-0.3,0.2-0.4,0.2h-1.9c-0.1,0-0.2,0-0.2-0.1c-0.1,0-0.1-0.1-0.2-0.1c-0.2-0.2-0.4-0.4-0.6-0.5
				c-0.2-0.2-0.5-0.4-0.8-0.5s-0.7-0.2-1.3-0.2c-0.7,0-1.2,0.1-1.5,0.4c-0.3,0.3-0.5,0.6-0.5,1.1c0,0.3,0.1,0.6,0.2,0.8
				s0.5,0.4,1,0.6c0.5,0.2,1.3,0.4,2.3,0.6c1.2,0.2,2.1,0.5,2.8,0.9s1.2,0.9,1.5,1.4s0.4,1.1,0.4,1.8c0,0.8-0.2,1.5-0.7,2.1
				s-1.1,1.1-2,1.5C409.1,776.2,408,776.4,406.7,776.4z"/>
			<path d="M421.5,776.1c-1,0-1.9-0.2-2.6-0.5c-0.7-0.4-1.2-0.9-1.6-1.6c-0.3-0.7-0.5-1.6-0.5-2.7v-5.9h-2.1c-0.2,0-0.3-0.1-0.4-0.2
				c-0.1-0.1-0.2-0.3-0.2-0.4v-1.5c0-0.2,0.1-0.3,0.2-0.4c0.1-0.1,0.3-0.2,0.4-0.2h2.1v-4.3c0-0.2,0.1-0.3,0.2-0.4
				c0.1-0.1,0.3-0.2,0.5-0.2h2.1c0.2,0,0.3,0.1,0.4,0.2c0.1,0.1,0.2,0.3,0.2,0.4v4.3h3.2c0.2,0,0.3,0.1,0.4,0.2
				c0.1,0.1,0.2,0.3,0.2,0.4v1.5c0,0.2-0.1,0.3-0.2,0.4c-0.1,0.1-0.3,0.2-0.4,0.2h-3.2v5.6c0,0.7,0.1,1.3,0.4,1.7s0.7,0.6,1.3,0.6
				h1.8c0.2,0,0.3,0.1,0.4,0.2c0.1,0.1,0.2,0.3,0.2,0.4v1.6c0,0.2-0.1,0.3-0.2,0.4c-0.1,0.1-0.3,0.2-0.4,0.2H421.5z"/>
		</g>
	</g>
	<g>
		<g>
			<path d="M147,808.1c-0.1,0-0.2,0-0.3-0.1s-0.1-0.2-0.2-0.3l-2.2-10.3v-0.1v-0.1c0-0.1,0-0.2,0.1-0.2c0.1-0.1,0.1-0.1,0.2-0.1h0.3
				c0.2,0,0.3,0.1,0.4,0.2l1.9,9.1l2-6.5c0-0.1,0.1-0.2,0.2-0.3c0.1-0.1,0.2-0.1,0.3-0.1h0.4c0.1,0,0.3,0,0.3,0.1
				c0.1,0.1,0.1,0.2,0.2,0.3l2,6.5l1.9-9.1c0-0.2,0.1-0.2,0.4-0.2h0.3c0.1,0,0.2,0,0.2,0.1c0.1,0.1,0.1,0.1,0.1,0.2c0,0,0,0,0,0.1
				v0.1l-2.2,10.3c0,0.1-0.1,0.2-0.2,0.3s-0.2,0.1-0.3,0.1h-0.2c-0.1,0-0.2,0-0.3-0.1s-0.1-0.2-0.2-0.3l-2.1-6.8l-2.1,6.8
				c0,0.1-0.1,0.2-0.2,0.3c-0.1,0.1-0.2,0.1-0.3,0.1H147z"/>
			<path d="M160.5,808.3c-1,0-1.9-0.3-2.5-1s-1-1.6-1-2.7c0-0.2,0-0.4,0-0.6s0-0.5,0-0.6c0.1-0.7,0.2-1.4,0.5-1.9s0.7-1,1.2-1.3
				s1.1-0.5,1.8-0.5s1.4,0.2,1.9,0.5s0.9,0.8,1.2,1.4c0.3,0.6,0.4,1.4,0.4,2.2v0.2c0,0.1,0,0.2-0.1,0.3s-0.2,0.1-0.3,0.1H158
				c0,0.1,0,0.1,0,0.2c0,0.5,0.1,0.9,0.3,1.4c0.2,0.4,0.5,0.8,0.9,1.1s0.8,0.4,1.3,0.4s0.8-0.1,1.1-0.2c0.3-0.1,0.5-0.3,0.7-0.5
				s0.3-0.3,0.4-0.4c0.1-0.1,0.2-0.2,0.2-0.2c0.1,0,0.1,0,0.3,0h0.3c0.1,0,0.2,0,0.2,0.1s0.1,0.1,0.1,0.2c0,0.1-0.1,0.3-0.2,0.6
				c-0.2,0.2-0.4,0.4-0.7,0.6c-0.3,0.2-0.6,0.4-1,0.5C161.5,808.2,161,808.3,160.5,808.3z M158,803.5h5.1v-0.1c0-0.5-0.1-1-0.3-1.4
				s-0.5-0.8-0.9-1c-0.4-0.3-0.8-0.4-1.4-0.4c-0.5,0-1,0.1-1.4,0.4c-0.4,0.3-0.7,0.6-0.9,1S158,802.9,158,803.5L158,803.5z"/>
			<path d="M173.4,808.3c-1,0-1.9-0.3-2.5-1s-1-1.6-1-2.7c0-0.2,0-0.4,0-0.6s0-0.5,0-0.6c0.1-0.7,0.2-1.4,0.5-1.9s0.7-1,1.2-1.3
				s1.1-0.5,1.8-0.5s1.4,0.2,1.9,0.5s0.9,0.8,1.2,1.4c0.3,0.6,0.4,1.4,0.4,2.2v0.2c0,0.1,0,0.2-0.1,0.3s-0.2,0.1-0.3,0.1h-5.7
				c0,0.1,0,0.1,0,0.2c0,0.5,0.1,0.9,0.3,1.4c0.2,0.4,0.5,0.8,0.9,1.1s0.8,0.4,1.3,0.4s0.8-0.1,1.1-0.2c0.3-0.1,0.5-0.3,0.7-0.5
				s0.3-0.3,0.4-0.4c0.1-0.1,0.2-0.2,0.2-0.2c0.1,0,0.1,0,0.3,0h0.3c0.1,0,0.2,0,0.2,0.1s0.1,0.1,0.1,0.2c0,0.1-0.1,0.3-0.2,0.6
				c-0.2,0.2-0.4,0.4-0.7,0.6c-0.3,0.2-0.6,0.4-1,0.5C174.3,808.2,173.9,808.3,173.4,808.3z M170.9,803.5h5.1v-0.1
				c0-0.5-0.1-1-0.3-1.4s-0.5-0.8-0.9-1c-0.4-0.3-0.8-0.4-1.4-0.4c-0.5,0-1,0.1-1.4,0.4c-0.4,0.3-0.7,0.6-0.9,1
				S170.9,802.9,170.9,803.5L170.9,803.5z"/>
			<path d="M179.2,798.1c-0.1,0-0.2,0-0.3-0.1s-0.1-0.1-0.1-0.3v-0.6c0-0.1,0-0.2,0.1-0.3s0.1-0.1,0.3-0.1h0.6c0.1,0,0.2,0,0.3,0.1
				s0.1,0.2,0.1,0.3v0.6c0,0.1,0,0.2-0.1,0.3s-0.2,0.1-0.3,0.1H179.2z M179.4,808.1c-0.1,0-0.2,0-0.3-0.1s-0.1-0.1-0.1-0.3v-7.6
				c0-0.1,0-0.2,0.1-0.3s0.1-0.1,0.3-0.1h0.3c0.1,0,0.2,0,0.3,0.1s0.1,0.1,0.1,0.3v7.6c0,0.1,0,0.2-0.1,0.3s-0.1,0.1-0.3,0.1H179.4z
				"/>
			<path d="M183,808.1c-0.1,0-0.2,0-0.3-0.1s-0.1-0.1-0.1-0.3V797c0-0.1,0-0.2,0.1-0.3s0.1-0.1,0.3-0.1h0.3c0.1,0,0.2,0,0.3,0.1
				s0.1,0.1,0.1,0.3v10.7c0,0.1,0,0.2-0.1,0.3s-0.1,0.1-0.3,0.1H183z"/>
			<path d="M186.6,808.1c-0.1,0-0.2,0-0.3-0.1s-0.1-0.1-0.1-0.3V797c0-0.1,0-0.2,0.1-0.3s0.1-0.1,0.3-0.1h0.3c0.1,0,0.2,0,0.3,0.1
				s0.1,0.1,0.1,0.3v10.7c0,0.1,0,0.2-0.1,0.3s-0.1,0.1-0.3,0.1H186.6z"/>
			<path d="M194.3,808.1c-0.1,0-0.2,0-0.3-0.1s-0.1-0.1-0.1-0.3v-7.6c0-0.1,0-0.2,0.1-0.3s0.1-0.1,0.3-0.1h0.3c0.1,0,0.2,0,0.3,0.1
				s0.1,0.2,0.1,0.3v0.7c0.2-0.4,0.5-0.7,0.8-0.8c0.4-0.2,0.8-0.3,1.3-0.3h0.6c0.1,0,0.2,0,0.3,0.1s0.1,0.1,0.1,0.3v0.2
				c0,0.1,0,0.2-0.1,0.3s-0.1,0.1-0.3,0.1H197c-0.6,0-1.1,0.2-1.5,0.6c-0.4,0.4-0.6,0.9-0.6,1.5v5c0,0.1,0,0.2-0.1,0.3
				s-0.2,0.1-0.3,0.1L194.3,808.1L194.3,808.1z"/>
			<path d="M202.6,808.3c-1,0-1.9-0.3-2.5-1s-1-1.6-1-2.7c0-0.2,0-0.4,0-0.6s0-0.5,0-0.6c0.1-0.7,0.2-1.4,0.5-1.9s0.7-1,1.2-1.3
				s1.1-0.5,1.8-0.5s1.4,0.2,1.9,0.5s0.9,0.8,1.2,1.4c0.3,0.6,0.4,1.4,0.4,2.2v0.2c0,0.1,0,0.2-0.1,0.3s-0.2,0.1-0.3,0.1H200
				c0,0.1,0,0.1,0,0.2c0,0.5,0.1,0.9,0.3,1.4c0.2,0.4,0.5,0.8,0.9,1.1s0.8,0.4,1.3,0.4s0.8-0.1,1.1-0.2c0.3-0.1,0.5-0.3,0.7-0.5
				s0.3-0.3,0.4-0.4c0.1-0.1,0.2-0.2,0.2-0.2c0.1,0,0.1,0,0.3,0h0.3c0.1,0,0.2,0,0.2,0.1s0.1,0.1,0.1,0.2c0,0.1-0.1,0.3-0.2,0.6
				c-0.2,0.2-0.4,0.4-0.7,0.6c-0.3,0.2-0.6,0.4-1,0.5C203.5,808.2,203.1,808.3,202.6,808.3z M200.1,803.5h5.1v-0.1
				c0-0.5-0.1-1-0.3-1.4s-0.5-0.8-0.9-1c-0.4-0.3-0.8-0.4-1.4-0.4c-0.5,0-1,0.1-1.4,0.4c-0.4,0.3-0.7,0.6-0.9,1
				S200.1,802.9,200.1,803.5L200.1,803.5z"/>
			<path d="M211.1,808.1c-0.2,0-0.3,0-0.4-0.1c-0.1-0.1-0.2-0.2-0.2-0.3l-2.9-7.4c0-0.1,0-0.1,0-0.2c0-0.1,0-0.2,0.1-0.2
				c0.1-0.1,0.1-0.1,0.2-0.1h0.3c0.1,0,0.2,0,0.2,0.1c0.1,0.1,0.1,0.1,0.1,0.2l2.7,6.9l2.7-6.9c0,0,0.1-0.1,0.1-0.2
				c0.1-0.1,0.1-0.1,0.2-0.1h0.3c0.1,0,0.2,0,0.2,0.1c0.1,0.1,0.1,0.1,0.1,0.2c0,0.1,0,0.1,0,0.2l-2.9,7.4c0,0.1-0.1,0.2-0.2,0.3
				c-0.1,0.1-0.2,0.1-0.4,0.1H211.1z"/>
			<path d="M217,798.1c-0.1,0-0.2,0-0.3-0.1s-0.1-0.1-0.1-0.3v-0.6c0-0.1,0-0.2,0.1-0.3s0.1-0.1,0.3-0.1h0.6c0.1,0,0.2,0,0.3,0.1
				s0.1,0.2,0.1,0.3v0.6c0,0.1,0,0.2-0.1,0.3s-0.2,0.1-0.3,0.1H217z M217.2,808.1c-0.1,0-0.2,0-0.3-0.1s-0.1-0.1-0.1-0.3v-7.6
				c0-0.1,0-0.2,0.1-0.3s0.1-0.1,0.3-0.1h0.3c0.1,0,0.2,0,0.3,0.1s0.1,0.1,0.1,0.3v7.6c0,0.1,0,0.2-0.1,0.3s-0.1,0.1-0.3,0.1H217.2z
				"/>
			<path d="M223.5,808.3c-1,0-1.9-0.3-2.5-1s-1-1.6-1-2.7c0-0.2,0-0.4,0-0.6s0-0.5,0-0.6c0.1-0.7,0.2-1.4,0.5-1.9s0.7-1,1.2-1.3
				s1.1-0.5,1.8-0.5s1.4,0.2,1.9,0.5s0.9,0.8,1.2,1.4c0.3,0.6,0.4,1.4,0.4,2.2v0.2c0,0.1,0,0.2-0.1,0.3s-0.2,0.1-0.3,0.1h-5.7
				c0,0.1,0,0.1,0,0.2c0,0.5,0.1,0.9,0.3,1.4c0.2,0.4,0.5,0.8,0.9,1.1s0.8,0.4,1.3,0.4s0.8-0.1,1.1-0.2c0.3-0.1,0.5-0.3,0.7-0.5
				s0.3-0.3,0.4-0.4c0.1-0.1,0.2-0.2,0.2-0.2c0.1,0,0.1,0,0.3,0h0.3c0.1,0,0.2,0,0.2,0.1s0.1,0.1,0.1,0.2c0,0.1-0.1,0.3-0.2,0.6
				c-0.2,0.2-0.4,0.4-0.7,0.6c-0.3,0.2-0.6,0.4-1,0.5C224.4,808.2,224,808.3,223.5,808.3z M220.9,803.5h5.1v-0.1
				c0-0.5-0.1-1-0.3-1.4s-0.5-0.8-0.9-1c-0.4-0.3-0.8-0.4-1.4-0.4c-0.5,0-1,0.1-1.4,0.4c-0.4,0.3-0.7,0.6-0.9,1
				S220.9,802.9,220.9,803.5L220.9,803.5z"/>
			<path d="M231.3,808.1c-0.1,0-0.2,0-0.3-0.1s-0.1-0.2-0.2-0.3l-2.3-7.4c0-0.1,0-0.1,0-0.2c0-0.1,0-0.2,0.1-0.2
				c0.1-0.1,0.1-0.1,0.2-0.1h0.3c0.1,0,0.2,0,0.2,0.1c0.1,0.1,0.1,0.1,0.1,0.2l2,6.7l2.1-6.6c0-0.1,0.1-0.1,0.1-0.2
				c0.1-0.1,0.2-0.1,0.3-0.1h0.3c0.1,0,0.2,0,0.3,0.1s0.1,0.1,0.1,0.2l2.1,6.6l2-6.7c0,0,0-0.1,0.1-0.2c0.1-0.1,0.1-0.1,0.2-0.1h0.3
				c0.1,0,0.2,0,0.2,0.1c0.1,0.1,0.1,0.1,0.1,0.2c0,0.1,0,0.1,0,0.2l-2.3,7.4c0,0.1-0.1,0.2-0.2,0.3c-0.1,0.1-0.2,0.1-0.3,0.1h-0.3
				c-0.1,0-0.3,0-0.3-0.1c-0.1-0.1-0.2-0.2-0.2-0.3l-2-6.3l-2,6.3c0,0.1-0.1,0.2-0.2,0.3c-0.1,0.1-0.2,0.1-0.4,0.1H231.3z"/>
			<path d="M247.2,811.2c-0.1,0-0.2,0-0.2-0.1c-0.1-0.1-0.1-0.1-0.1-0.2v-0.1c0,0,0-0.1,0.1-0.2l1.2-2.9l-3.1-7.2
				c-0.1-0.2-0.1-0.3-0.1-0.3c0-0.1,0-0.2,0.1-0.2c0.1-0.1,0.1-0.1,0.2-0.1h0.3c0.1,0,0.2,0,0.2,0.1s0.1,0.1,0.1,0.2l2.7,6.3
				l2.8-6.3c0-0.1,0.1-0.1,0.1-0.2s0.1-0.1,0.2-0.1h0.3c0.1,0,0.2,0,0.2,0.1c0.1,0.1,0.1,0.1,0.1,0.2c0,0.1,0,0.2-0.1,0.3l-4.5,10.5
				c0,0.1-0.1,0.1-0.1,0.2c-0.1,0-0.1,0.1-0.2,0.1L247.2,811.2L247.2,811.2z"/>
			<path d="M257.5,808.3c-0.8,0-1.4-0.2-1.9-0.5s-0.9-0.8-1.2-1.3s-0.4-1.2-0.4-1.9c0-0.2,0-0.4,0-0.7s0-0.5,0-0.7
				c0-0.7,0.2-1.3,0.4-1.9c0.3-0.5,0.7-1,1.2-1.3s1.2-0.5,1.9-0.5s1.4,0.2,1.9,0.5s0.9,0.8,1.2,1.3c0.3,0.5,0.4,1.2,0.4,1.9
				c0,0.2,0,0.4,0,0.7s0,0.5,0,0.7c0,0.7-0.2,1.3-0.4,1.9s-0.7,1-1.2,1.3S258.3,808.3,257.5,808.3z M257.5,807.4
				c0.7,0,1.4-0.2,1.8-0.7c0.5-0.5,0.7-1.2,0.8-2.1c0-0.2,0-0.4,0-0.6c0-0.2,0-0.4,0-0.6c0-0.9-0.3-1.6-0.8-2.1s-1.1-0.7-1.8-0.7
				s-1.4,0.2-1.8,0.7c-0.5,0.5-0.7,1.2-0.8,2.1c0,0.2,0,0.4,0,0.6c0,0.2,0,0.4,0,0.6c0,0.9,0.3,1.6,0.8,2.1
				C256.1,807.1,256.7,807.4,257.5,807.4z"/>
			<path d="M266.4,808.3c-0.7,0-1.3-0.2-1.8-0.5s-0.8-0.7-1.1-1.3c-0.2-0.5-0.3-1.2-0.3-1.8v-4.5c0-0.1,0-0.2,0.1-0.3
				s0.1-0.1,0.3-0.1h0.3c0.1,0,0.2,0,0.3,0.1c0.1,0.1,0.1,0.1,0.1,0.3v4.5c0,1.8,0.8,2.7,2.4,2.7c0.8,0,1.4-0.2,1.8-0.7
				s0.7-1.2,0.7-2v-4.5c0-0.1,0-0.2,0.1-0.3s0.1-0.1,0.3-0.1h0.3c0.1,0,0.2,0,0.3,0.1c0.1,0.1,0.1,0.1,0.1,0.3v7.6
				c0,0.1,0,0.2-0.1,0.3s-0.1,0.1-0.3,0.1h-0.3c-0.1,0-0.2,0-0.3-0.1c-0.1-0.1-0.1-0.1-0.1-0.3V807c-0.3,0.4-0.6,0.7-1,0.9
				C267.6,808.2,267.1,808.3,266.4,808.3z"/>
			<path d="M273,808.1c-0.1,0-0.2,0-0.3-0.1c-0.1-0.1-0.1-0.1-0.1-0.3v-7.6c0-0.1,0-0.2,0.1-0.3s0.1-0.1,0.3-0.1h0.3
				c0.1,0,0.2,0,0.3,0.1s0.1,0.2,0.1,0.3v0.7c0.2-0.4,0.5-0.7,0.8-0.8c0.4-0.2,0.8-0.3,1.3-0.3h0.6c0.1,0,0.2,0,0.3,0.1
				c0.1,0.1,0.1,0.1,0.1,0.3v0.2c0,0.1,0,0.2-0.1,0.3s-0.1,0.1-0.3,0.1h-0.7c-0.6,0-1.1,0.2-1.5,0.6c-0.4,0.4-0.6,0.9-0.6,1.5v5
				c0,0.1,0,0.2-0.1,0.3s-0.2,0.1-0.3,0.1L273,808.1L273,808.1z"/>
			<path d="M284.5,808.3c-0.5,0-1-0.1-1.4-0.3s-0.8-0.5-1-0.9s-0.4-0.8-0.4-1.2c0-0.7,0.3-1.3,0.9-1.7s1.3-0.7,2.3-0.8l2.5-0.4v-0.6
				c0-0.6-0.2-1-0.5-1.3s-0.9-0.5-1.7-0.5c-0.6,0-1,0.1-1.3,0.3s-0.6,0.5-0.7,0.9c-0.1,0.2-0.2,0.2-0.3,0.2h-0.3
				c-0.1,0-0.2,0-0.3-0.1c-0.1-0.1-0.1-0.2-0.1-0.2c0-0.1,0.1-0.3,0.2-0.6c0.1-0.2,0.3-0.4,0.5-0.7c0.2-0.2,0.5-0.4,0.9-0.6
				c0.4-0.1,0.8-0.2,1.4-0.2s1.1,0.1,1.6,0.3c0.4,0.2,0.7,0.4,1,0.7c0.2,0.3,0.4,0.6,0.5,0.9c0.1,0.3,0.1,0.7,0.1,1v5.3
				c0,0.1,0,0.2-0.1,0.3s-0.1,0.1-0.3,0.1h-0.3c-0.1,0-0.2,0-0.3-0.1c-0.1-0.1-0.1-0.1-0.1-0.3V807c-0.1,0.2-0.3,0.4-0.5,0.6
				c-0.2,0.2-0.5,0.4-0.9,0.5S285.1,808.3,284.5,808.3z M284.7,807.4c0.5,0,0.9-0.1,1.3-0.3s0.7-0.5,1-1c0.2-0.4,0.4-1,0.4-1.7v-0.5
				l-2.1,0.3c-0.9,0.1-1.5,0.3-2,0.6c-0.4,0.3-0.7,0.7-0.7,1.1c0,0.4,0.1,0.6,0.3,0.9c0.2,0.2,0.5,0.4,0.8,0.5
				C284.1,807.3,284.4,807.4,284.7,807.4z"/>
			<path d="M291.3,811.2c-0.1,0-0.2,0-0.3-0.1c-0.1-0.1-0.1-0.1-0.1-0.3v-10.7c0-0.1,0-0.2,0.1-0.3s0.1-0.1,0.3-0.1h0.3
				c0.1,0,0.2,0,0.3,0.1c0.1,0.1,0.1,0.1,0.1,0.3v0.8c0.3-0.4,0.6-0.7,1-0.9s1-0.4,1.6-0.4s1.2,0.1,1.6,0.3s0.8,0.5,1,0.9
				c0.3,0.4,0.5,0.8,0.6,1.2s0.2,0.9,0.2,1.4c0,0.2,0,0.3,0,0.5s0,0.4,0,0.5c0,0.5-0.1,0.9-0.2,1.4s-0.3,0.9-0.6,1.2
				c-0.3,0.4-0.6,0.7-1,0.9s-1,0.3-1.6,0.3c-0.7,0-1.2-0.1-1.6-0.4s-0.8-0.5-1-0.9v3.8c0,0.1,0,0.2-0.1,0.3s-0.1,0.1-0.3,0.1h-0.3
				V811.2z M294.5,807.4c0.6,0,1.1-0.1,1.5-0.4c0.4-0.3,0.6-0.6,0.8-1.1c0.2-0.4,0.3-0.9,0.3-1.4c0-0.3,0-0.6,0-0.9
				c0-0.5-0.1-1-0.3-1.4c-0.2-0.4-0.4-0.8-0.8-1.1s-0.9-0.4-1.5-0.4s-1.1,0.1-1.5,0.4c-0.4,0.3-0.6,0.6-0.8,1.1s-0.3,0.9-0.3,1.3
				c0,0.2,0,0.4,0,0.6s0,0.5,0,0.6c0,0.4,0.1,0.8,0.3,1.3s0.5,0.8,0.8,1C293.4,807.2,293.9,807.4,294.5,807.4z"/>
			<path d="M300.5,811.2c-0.1,0-0.2,0-0.3-0.1c-0.1-0.1-0.1-0.1-0.1-0.3v-10.7c0-0.1,0-0.2,0.1-0.3s0.1-0.1,0.3-0.1h0.3
				c0.1,0,0.2,0,0.3,0.1c0.1,0.1,0.1,0.1,0.1,0.3v0.8c0.3-0.4,0.6-0.7,1-0.9s1-0.4,1.6-0.4s1.2,0.1,1.6,0.3s0.8,0.5,1,0.9
				c0.3,0.4,0.5,0.8,0.6,1.2s0.2,0.9,0.2,1.4c0,0.2,0,0.3,0,0.5s0,0.4,0,0.5c0,0.5-0.1,0.9-0.2,1.4s-0.3,0.9-0.6,1.2
				c-0.3,0.4-0.6,0.7-1,0.9s-1,0.3-1.6,0.3c-0.7,0-1.2-0.1-1.6-0.4s-0.8-0.5-1-0.9v3.8c0,0.1,0,0.2-0.1,0.3s-0.1,0.1-0.3,0.1h-0.3
				V811.2z M303.8,807.4c0.6,0,1.1-0.1,1.5-0.4c0.4-0.3,0.6-0.6,0.8-1.1c0.2-0.4,0.3-0.9,0.3-1.4c0-0.3,0-0.6,0-0.9
				c0-0.5-0.1-1-0.3-1.4c-0.2-0.4-0.4-0.8-0.8-1.1s-0.9-0.4-1.5-0.4s-1.1,0.1-1.5,0.4c-0.4,0.3-0.6,0.6-0.8,1.1s-0.3,0.9-0.3,1.3
				c0,0.2,0,0.4,0,0.6s0,0.5,0,0.6c0,0.4,0.1,0.8,0.3,1.3s0.5,0.8,0.8,1C302.7,807.2,303.2,807.4,303.8,807.4z"/>
			<path d="M309.8,808.1c-0.1,0-0.2,0-0.3-0.1c-0.1-0.1-0.1-0.1-0.1-0.3V797c0-0.1,0-0.2,0.1-0.3s0.1-0.1,0.3-0.1h0.3
				c0.1,0,0.2,0,0.3,0.1c0.1,0.1,0.1,0.1,0.1,0.3v10.7c0,0.1,0,0.2-0.1,0.3s-0.1,0.1-0.3,0.1H309.8z"/>
			<path d="M313.3,798.1c-0.1,0-0.2,0-0.3-0.1c-0.1-0.1-0.1-0.1-0.1-0.3v-0.6c0-0.1,0-0.2,0.1-0.3s0.1-0.1,0.3-0.1h0.6
				c0.1,0,0.2,0,0.3,0.1c0.1,0.1,0.1,0.2,0.1,0.3v0.6c0,0.1,0,0.2-0.1,0.3s-0.2,0.1-0.3,0.1H313.3z M313.4,808.1
				c-0.1,0-0.2,0-0.3-0.1c-0.1-0.1-0.1-0.1-0.1-0.3v-7.6c0-0.1,0-0.2,0.1-0.3s0.1-0.1,0.3-0.1h0.3c0.1,0,0.2,0,0.3,0.1
				c0.1,0.1,0.1,0.1,0.1,0.3v7.6c0,0.1,0,0.2-0.1,0.3s-0.1,0.1-0.3,0.1H313.4z"/>
			<path d="M319.8,808.3c-0.7,0-1.4-0.1-1.9-0.4c-0.5-0.3-0.9-0.7-1.2-1.3s-0.4-1.2-0.4-2c0-0.2,0-0.4,0-0.6s0-0.5,0-0.6
				c0-0.8,0.2-1.4,0.4-2c0.3-0.5,0.7-1,1.2-1.3s1.2-0.4,1.9-0.4c0.6,0,1.1,0.1,1.5,0.2c0.4,0.2,0.7,0.4,1,0.6
				c0.3,0.2,0.5,0.5,0.6,0.8s0.2,0.6,0.2,0.9c0,0.1,0,0.2-0.1,0.3s-0.2,0.1-0.3,0.1h-0.2c-0.1,0-0.2,0-0.2-0.1c0,0-0.1-0.1-0.2-0.3
				c-0.2-0.6-0.5-1-0.9-1.3c-0.4-0.2-0.9-0.4-1.4-0.4c-0.7,0-1.3,0.2-1.8,0.7s-0.7,1.2-0.8,2.2c0,0.4,0,0.7,0,1.1
				c0,1,0.3,1.7,0.8,2.2s1.1,0.7,1.8,0.7c0.6,0,1-0.1,1.4-0.4s0.7-0.7,0.9-1.3c0.1-0.1,0.1-0.2,0.2-0.3c0,0,0.1-0.1,0.2-0.1h0.2
				c0.1,0,0.2,0,0.3,0.1c0.1,0.1,0.1,0.1,0.1,0.3s-0.1,0.5-0.1,0.7c-0.1,0.2-0.2,0.5-0.4,0.7c-0.2,0.2-0.4,0.4-0.6,0.6
				c-0.3,0.2-0.6,0.3-0.9,0.4C320.6,808.2,320.2,808.3,319.8,808.3z"/>
			<path d="M327.5,808.3c-0.5,0-1-0.1-1.4-0.3s-0.8-0.5-1-0.9s-0.4-0.8-0.4-1.2c0-0.7,0.3-1.3,0.9-1.7s1.3-0.7,2.3-0.8l2.5-0.4v-0.6
				c0-0.6-0.2-1-0.5-1.3s-0.9-0.5-1.7-0.5c-0.6,0-1,0.1-1.3,0.3s-0.6,0.5-0.7,0.9c-0.1,0.2-0.2,0.2-0.3,0.2h-0.3
				c-0.1,0-0.2,0-0.3-0.1c-0.1-0.1-0.1-0.2-0.1-0.2c0-0.1,0.1-0.3,0.2-0.6c0.1-0.2,0.3-0.4,0.5-0.7c0.2-0.2,0.5-0.4,0.9-0.6
				c0.4-0.1,0.8-0.2,1.4-0.2s1.1,0.1,1.6,0.3c0.4,0.2,0.7,0.4,1,0.7c0.2,0.3,0.4,0.6,0.5,0.9c0.1,0.3,0.1,0.7,0.1,1v5.3
				c0,0.1,0,0.2-0.1,0.3s-0.1,0.1-0.3,0.1h-0.3c-0.1,0-0.2,0-0.3-0.1c-0.1-0.1-0.1-0.1-0.1-0.3V807c-0.1,0.2-0.3,0.4-0.5,0.6
				c-0.2,0.2-0.5,0.4-0.9,0.5S328,808.3,327.5,808.3z M327.6,807.4c0.5,0,0.9-0.1,1.3-0.3s0.7-0.5,1-1c0.2-0.4,0.4-1,0.4-1.7v-0.5
				l-2.1,0.3c-0.9,0.1-1.5,0.3-2,0.6c-0.4,0.3-0.7,0.7-0.7,1.1c0,0.4,0.1,0.6,0.3,0.9c0.2,0.2,0.5,0.4,0.8,0.5
				C327,807.3,327.3,807.4,327.6,807.4z"/>
			<path d="M336.6,808.1c-0.6,0-1-0.1-1.3-0.4c-0.3-0.2-0.5-0.6-0.7-1c-0.1-0.4-0.2-0.9-0.2-1.4v-4.7h-1.2c-0.1,0-0.2,0-0.3-0.1
				c-0.1-0.1-0.1-0.1-0.1-0.3V800c0-0.1,0-0.2,0.1-0.3s0.1-0.1,0.3-0.1h1.2v-2.7c0-0.1,0-0.2,0.1-0.3s0.1-0.1,0.3-0.1h0.3
				c0.1,0,0.2,0,0.3,0.1c0.1,0.1,0.1,0.1,0.1,0.3v2.7h2c0.1,0,0.2,0,0.3,0.1c0.1,0.1,0.1,0.1,0.1,0.3v0.2c0,0.1,0,0.2-0.1,0.3
				s-0.1,0.1-0.3,0.1h-2v4.7c0,0.6,0.1,1,0.3,1.3c0.2,0.3,0.5,0.5,1,0.5h0.9c0.1,0,0.2,0,0.3,0.1s0.1,0.1,0.1,0.3v0.2
				c0,0.1,0,0.2-0.1,0.3s-0.1,0.1-0.3,0.1L336.6,808.1L336.6,808.1z"/>
			<path d="M339.7,798.1c-0.1,0-0.2,0-0.3-0.1c-0.1-0.1-0.1-0.1-0.1-0.3v-0.6c0-0.1,0-0.2,0.1-0.3s0.1-0.1,0.3-0.1h0.6
				c0.1,0,0.2,0,0.3,0.1c0.1,0.1,0.1,0.2,0.1,0.3v0.6c0,0.1,0,0.2-0.1,0.3s-0.2,0.1-0.3,0.1H339.7z M339.9,808.1
				c-0.1,0-0.2,0-0.3-0.1c-0.1-0.1-0.1-0.1-0.1-0.3v-7.6c0-0.1,0-0.2,0.1-0.3s0.1-0.1,0.3-0.1h0.3c0.1,0,0.2,0,0.3,0.1
				c0.1,0.1,0.1,0.1,0.1,0.3v7.6c0,0.1,0,0.2-0.1,0.3s-0.1,0.1-0.3,0.1H339.9z"/>
			<path d="M346.3,808.3c-0.8,0-1.4-0.2-1.9-0.5s-0.9-0.8-1.2-1.3s-0.4-1.2-0.4-1.9c0-0.2,0-0.4,0-0.7s0-0.5,0-0.7
				c0-0.7,0.2-1.3,0.4-1.9c0.3-0.5,0.7-1,1.2-1.3s1.2-0.5,1.9-0.5s1.4,0.2,1.9,0.5s0.9,0.8,1.2,1.3c0.3,0.5,0.4,1.2,0.4,1.9
				c0,0.2,0,0.4,0,0.7s0,0.5,0,0.7c0,0.7-0.2,1.3-0.4,1.9s-0.7,1-1.2,1.3C347.7,808.1,347,808.3,346.3,808.3z M346.3,807.4
				c0.7,0,1.4-0.2,1.8-0.7c0.5-0.5,0.7-1.2,0.8-2.1c0-0.2,0-0.4,0-0.6c0-0.2,0-0.4,0-0.6c0-0.9-0.3-1.6-0.8-2.1s-1.1-0.7-1.8-0.7
				s-1.4,0.2-1.8,0.7c-0.5,0.5-0.7,1.2-0.8,2.1c0,0.2,0,0.4,0,0.6c0,0.2,0,0.4,0,0.6c0,0.9,0.3,1.6,0.8,2.1
				C344.9,807.1,345.5,807.4,346.3,807.4z"/>
			<path d="M352.4,808.1c-0.1,0-0.2,0-0.3-0.1c-0.1-0.1-0.1-0.1-0.1-0.3v-7.6c0-0.1,0-0.2,0.1-0.3s0.1-0.1,0.3-0.1h0.3
				c0.1,0,0.2,0,0.3,0.1c0.1,0.1,0.1,0.1,0.1,0.3v0.8c0.3-0.4,0.6-0.7,1-0.9s1-0.4,1.6-0.4c0.7,0,1.3,0.2,1.8,0.5s0.8,0.7,1.1,1.3
				c0.2,0.5,0.4,1.1,0.4,1.8v4.5c0,0.1,0,0.2-0.1,0.3s-0.1,0.1-0.3,0.1h-0.3c-0.1,0-0.2,0-0.3-0.1c-0.1-0.1-0.1-0.1-0.1-0.3v-4.5
				c0-0.9-0.2-1.5-0.6-2s-1-0.7-1.8-0.7s-1.4,0.2-1.8,0.7c-0.5,0.5-0.7,1.2-0.7,2v4.5c0,0.1,0,0.2-0.1,0.3s-0.1,0.1-0.3,0.1
				L352.4,808.1L352.4,808.1z"/>
			<path d="M361.7,808.1c-0.1,0-0.2,0-0.3-0.1c-0.1-0.1-0.1-0.1-0.1-0.3V807c0-0.1,0-0.2,0.1-0.3s0.1-0.1,0.3-0.1h0.8
				c0.1,0,0.2,0,0.3,0.1s0.1,0.2,0.1,0.3v0.8c0,0.1,0,0.2-0.1,0.3s-0.2,0.1-0.3,0.1L361.7,808.1L361.7,808.1z"/>
		</g>
	</g>
	<rect x="45.9" y="617.8" class="st10" width="416.7" height="40.2"/>
	<g>
		<line class="st14" x1="173.7" y1="637.9" x2="208" y2="637.9"/>
		<line class="st14" x1="226.7" y1="637.9" x2="261" y2="637.9"/>
		<line class="st14" x1="279.8" y1="637.9" x2="314.1" y2="637.9"/>
	</g>
	<circle cx="118.4" cy="637.9" r="12.5"/>
	<path d="M399.5,643.6h-39.7c-1.7,0-3-1.3-3-3v-5.4c0-1.7,1.3-3,3-3h39.7c1.7,0,3,1.3,3,3v5.4C402.5,642.3,401.2,643.6,399.5,643.6z
		"/>
	<path d="M238.3,865.9h-76c-2.8,0-5-2.2-5-5v-11.2c0-2.8,2.2-5,5-5h76c2.8,0,5,2.2,5,5v11.2C243.3,863.6,241,865.9,238.3,865.9z"/>
	<path class="st10" d="M345.3,865.9h-76c-2.8,0-5-2.2-5-5v-11.2c0-2.8,2.2-5,5-5h76c2.8,0,5,2.2,5,5v11.2
		C350.3,863.6,348,865.9,345.3,865.9z"/>
	<line class="st15" x1="170.3" y1="855.3" x2="229.9" y2="855.3"/>
	<line class="st14" x1="277.5" y1="855.3" x2="337.1" y2="855.3"/>
	<g>
		<g>
			
				<image style="overflow:visible;opacity:0.1;enable-background:new    ;" width="346" height="326" xlink:href="64A0BA2AF0E687B6.png"  transform="matrix(1 0 0 1 56 283)">
			</image>
			<g>
				<path class="st6" d="M331.3,518.2H126.5c-5.5,0-10-4.5-10-10V323.6c0-5.5,4.5-10,10-10h204.8c5.5,0,10,4.5,10,10v184.6
					C341.3,513.7,336.8,518.2,331.3,518.2z"/>
			</g>
		</g>
		<path class="st7" d="M341.3,363.6H116.5v-40c0-5.5,4.5-10,10-10h204.8c5.5,0,10,4.5,10,10V363.6z"/>
		<g>
			<circle class="st8" cx="146.6" cy="339.1" r="8.6"/>
			<circle class="st9" cx="177.1" cy="339.1" r="8.6"/>
			<circle class="st10" cx="207.6" cy="339.1" r="8.6"/>
		</g>
		<line class="st11" x1="137.4" y1="384.8" x2="320.4" y2="384.8"/>
		<line class="st11" x1="137.4" y1="401.3" x2="320.4" y2="401.3"/>
		<line class="st11" x1="137.4" y1="417.8" x2="320.4" y2="417.8"/>
		<line class="st11" x1="137.4" y1="434.3" x2="270.7" y2="434.3"/>
		<line class="st11" x1="137.4" y1="450.7" x2="233.3" y2="450.7"/>
		<path class="st12" d="M315.4,498.2h-68.2c-2.8,0-5-2.2-5-5v-17.3c0-2.8,2.2-5,5-5h68.2c2.8,0,5,2.2,5,5v17.3
			C320.4,495.9,318.2,498.2,315.4,498.2z"/>
		<g>
			<g>
				<path class="st10" d="M254.1,489.7c-1,0-1.8-0.1-2.5-0.4s-1.2-0.7-1.5-1.2s-0.5-1-0.6-1.5c0-0.1,0-0.2,0.1-0.2
					c0.1-0.1,0.1-0.1,0.2-0.1h1.4c0.1,0,0.2,0,0.3,0.1s0.1,0.1,0.2,0.2c0.1,0.2,0.2,0.4,0.4,0.6s0.4,0.4,0.7,0.5s0.7,0.2,1.2,0.2
					c0.8,0,1.3-0.1,1.7-0.4s0.6-0.6,0.6-1c0-0.3-0.1-0.6-0.3-0.7c-0.2-0.2-0.5-0.4-0.9-0.5c-0.4-0.2-1-0.3-1.7-0.5
					c-0.8-0.2-1.5-0.4-2-0.7s-0.9-0.6-1.2-1s-0.4-0.9-0.4-1.6c0-0.6,0.2-1.2,0.5-1.6s0.8-0.9,1.4-1.1s1.4-0.4,2.2-0.4
					c0.7,0,1.3,0.1,1.8,0.3c0.5,0.2,1,0.4,1.3,0.7c0.4,0.3,0.6,0.6,0.8,1c0.2,0.3,0.3,0.7,0.3,1c0,0.1,0,0.2-0.1,0.2
					c-0.1,0.1-0.1,0.1-0.2,0.1h-1.5c-0.1,0-0.2,0-0.3-0.1c-0.1,0-0.2-0.1-0.2-0.2c-0.1-0.3-0.3-0.6-0.6-0.8
					c-0.4-0.2-0.8-0.4-1.4-0.4c-0.6,0-1,0.1-1.4,0.3c-0.4,0.2-0.5,0.5-0.5,1c0,0.3,0.1,0.5,0.3,0.7s0.5,0.4,0.8,0.5s0.9,0.3,1.5,0.5
					c0.9,0.2,1.6,0.4,2.2,0.7c0.6,0.3,1,0.6,1.3,1s0.4,0.9,0.4,1.6s-0.2,1.3-0.6,1.8s-0.9,0.9-1.6,1.1
					C255.8,489.6,255,489.7,254.1,489.7z"/>
				<path class="st10" d="M263.9,489.7c-1.2,0-2.1-0.3-2.8-1s-1.1-1.7-1.1-2.9c0-0.1,0-0.2,0-0.4c0-0.2,0-0.3,0-0.4
					c0-0.8,0.2-1.5,0.6-2.1c0.3-0.6,0.8-1,1.4-1.4c0.6-0.3,1.3-0.5,2-0.5c0.9,0,1.6,0.2,2.2,0.5c0.6,0.4,1,0.9,1.3,1.5
					s0.4,1.4,0.4,2.2v0.3c0,0.1,0,0.2-0.1,0.3c-0.1,0.1-0.2,0.1-0.3,0.1h-5.3c0,0.1,0,0.1,0,0.1c0,0.4,0.1,0.7,0.2,1
					s0.3,0.6,0.6,0.8c0.3,0.2,0.6,0.3,0.9,0.3s0.5,0,0.8-0.1c0.2-0.1,0.4-0.2,0.5-0.3s0.2-0.2,0.3-0.3c0.1-0.1,0.2-0.2,0.2-0.2
					c0.1,0,0.1,0,0.3,0h1.4c0.1,0,0.2,0,0.3,0.1c0.1,0.1,0.1,0.1,0.1,0.2c0,0.2-0.1,0.4-0.3,0.6c-0.2,0.2-0.4,0.5-0.7,0.7
					c-0.3,0.2-0.7,0.4-1.2,0.6C265,489.6,264.5,489.7,263.9,489.7z M262.1,484.7h3.5l0,0c0-0.4-0.1-0.8-0.2-1.1
					c-0.1-0.3-0.3-0.6-0.6-0.7c-0.3-0.2-0.6-0.3-1-0.3s-0.7,0.1-1,0.3c-0.3,0.2-0.5,0.4-0.6,0.7
					C262.2,483.9,262.1,484.2,262.1,484.7L262.1,484.7z"/>
				<path class="st10" d="M269.9,489.6c-0.1,0-0.2,0-0.3-0.1c-0.1-0.1-0.1-0.2-0.1-0.3v-7.6c0-0.1,0-0.2,0.1-0.3
					c0.1-0.1,0.2-0.1,0.3-0.1h1.3c0.1,0,0.2,0,0.3,0.1c0.1,0.1,0.1,0.2,0.1,0.3v0.7c0.3-0.3,0.6-0.6,1.1-0.9c0.4-0.2,1-0.3,1.6-0.3
					c0.7,0,1.2,0.1,1.7,0.4s0.9,0.7,1.1,1.2c0.3,0.5,0.4,1.2,0.4,1.9v4.5c0,0.1,0,0.2-0.1,0.3c-0.1,0.1-0.2,0.1-0.3,0.1h-1.4
					c-0.1,0-0.2,0-0.3-0.1c-0.1-0.1-0.1-0.2-0.1-0.3v-4.4c0-0.6-0.2-1.1-0.5-1.5s-0.7-0.5-1.3-0.5c-0.6,0-1,0.2-1.3,0.5
					c-0.3,0.4-0.5,0.8-0.5,1.5v4.4c0,0.1,0,0.2-0.1,0.3c-0.1,0.1-0.2,0.1-0.3,0.1L269.9,489.6L269.9,489.6z"/>
				<path class="st10" d="M282.6,489.7c-0.6,0-1-0.1-1.5-0.3c-0.4-0.2-0.8-0.5-1-0.8c-0.3-0.3-0.5-0.7-0.6-1.2s-0.2-1-0.3-1.5
					c0-0.2,0-0.4,0-0.5c0-0.2,0-0.3,0-0.5c0-0.5,0.1-1,0.2-1.5s0.4-0.9,0.6-1.2c0.3-0.3,0.6-0.6,1.1-0.8c0.4-0.2,0.9-0.3,1.5-0.3
					s1.1,0.1,1.5,0.3c0.4,0.2,0.7,0.5,1,0.8v-3.6c0-0.1,0-0.2,0.1-0.3c0.1-0.1,0.2-0.1,0.3-0.1h1.4c0.1,0,0.2,0,0.3,0.1
					c0.1,0.1,0.1,0.2,0.1,0.3v10.6c0,0.1,0,0.2-0.1,0.3c-0.1,0.1-0.2,0.1-0.3,0.1h-1.3c-0.1,0-0.2,0-0.3-0.1s-0.1-0.2-0.1-0.3v-0.6
					c-0.3,0.3-0.6,0.6-1,0.8C283.8,489.6,283.2,489.7,282.6,489.7z M283.2,488c0.4,0,0.8-0.1,1.1-0.3s0.5-0.5,0.6-0.8s0.2-0.6,0.2-1
					c0-0.2,0-0.4,0-0.6s0-0.4,0-0.6c0-0.3-0.1-0.6-0.2-0.9s-0.3-0.5-0.6-0.7c-0.3-0.2-0.6-0.3-1-0.3s-0.8,0.1-1.1,0.3
					c-0.3,0.2-0.5,0.5-0.6,0.8s-0.2,0.7-0.2,1.1c0,0.3,0,0.6,0,1s0.1,0.7,0.2,1.1c0.1,0.3,0.3,0.6,0.6,0.8
					C282.4,487.9,282.8,488,283.2,488z"/>
				<path class="st10" d="M297.5,489.7c-1,0-1.8-0.2-2.5-0.5s-1.2-0.8-1.6-1.5c-0.4-0.6-0.6-1.4-0.6-2.3c0-0.4,0-0.9,0-1.4
					s0-1,0-1.4c0-0.9,0.2-1.7,0.6-2.3c0.4-0.7,0.9-1.1,1.6-1.5c0.7-0.3,1.5-0.5,2.5-0.5c0.7,0,1.4,0.1,2,0.3
					c0.6,0.2,1.1,0.5,1.5,0.8s0.7,0.7,0.9,1.2c0.2,0.4,0.3,0.9,0.4,1.5c0,0.1,0,0.2-0.1,0.2s-0.2,0.1-0.2,0.1h-1.5
					c-0.1,0-0.2,0-0.3-0.1c-0.1-0.1-0.1-0.2-0.2-0.3c-0.2-0.7-0.5-1.2-0.9-1.4c-0.4-0.3-0.9-0.4-1.6-0.4s-1.3,0.2-1.7,0.6
					s-0.7,1.1-0.7,2s0,1.8,0,2.7c0,0.9,0.3,1.6,0.7,2c0.4,0.4,1,0.6,1.7,0.6c0.6,0,1.1-0.1,1.6-0.4c0.4-0.3,0.7-0.7,0.9-1.4
					c0-0.1,0.1-0.3,0.2-0.3c0.1-0.1,0.2-0.1,0.3-0.1h1.5c0.1,0,0.2,0,0.2,0.1s0.1,0.1,0.1,0.2c0,0.5-0.1,1-0.4,1.5
					c-0.2,0.4-0.5,0.8-0.9,1.2s-0.9,0.6-1.5,0.8C298.9,489.6,298.2,489.7,297.5,489.7z"/>
				<path class="st10" d="M307.4,489.6c-0.2,0-0.3,0-0.4-0.1s-0.2-0.2-0.2-0.3l-3.4-10.3c0-0.1,0-0.1,0-0.1c0-0.1,0-0.2,0.1-0.2
					c0.1-0.1,0.1-0.1,0.2-0.1h1.4c0.1,0,0.3,0,0.3,0.1s0.1,0.2,0.2,0.2l2.7,8.2l2.7-8.2c0-0.1,0.1-0.2,0.2-0.2s0.2-0.1,0.3-0.1h1.4
					c0.1,0,0.2,0,0.2,0.1c0.1,0.1,0.1,0.1,0.1,0.2v0.1l-3.4,10.3c0,0.1-0.1,0.2-0.2,0.3s-0.2,0.1-0.4,0.1H307.4z"/>
			</g>
		</g>
	</g>
</g>
<g>
	<path class="st4" d="M772,262.3H668.6c-5.5,0-10-4.5-10-10v-33.7c0-5.5,4.5-10,10-10H772c5.5,0,10,4.5,10,10v33.7
		C782,257.9,777.5,262.3,772,262.3z"/>
	<path class="st5" d="M772,262.3H668.6c-5.5,0-10-4.5-10-10v-33.7c0-5.5,4.5-10,10-10H772c5.5,0,10,4.5,10,10v33.7
		C782,257.9,777.5,262.3,772,262.3z"/>
</g>
<g>
	<path class="st16" d="M177.1,546.3H73.7c-5.5,0-10-4.5-10-10v-33.7c0-5.5,4.5-10,10-10h103.4c5.5,0,10,4.5,10,10v33.7
		C187.1,541.9,182.6,546.3,177.1,546.3z"/>
	<path class="st17" d="M177.1,546.3H73.7c-5.5,0-10-4.5-10-10v-33.7c0-5.5,4.5-10,10-10h103.4c5.5,0,10,4.5,10,10v33.7
		C187.1,541.9,182.6,546.3,177.1,546.3z"/>
</g>
<g>
	<path class="st0" d="M320.7,80H217.3c-5.5,0-10-4.5-10-10V36.3c0-5.5,4.5-10,10-10h103.4c5.5,0,10,4.5,10,10V70
		C330.7,75.5,326.2,80,320.7,80z"/>
	<path class="st1" d="M320.7,80H217.3c-5.5,0-10-4.5-10-10V36.3c0-5.5,4.5-10,10-10h103.4c5.5,0,10,4.5,10,10V70
		C330.7,75.5,326.2,80,320.7,80z"/>
	<text transform="matrix(1 0 0 1 188.7766 497.0485)" class="st12 st18 st19">191923</text>
</g>
<g>
	<path class="st16" d="M960.9,497.1H857.5c-5.5,0-10-4.5-10-10v-33.7c0-5.5,4.5-10,10-10h103.4c5.5,0,10,4.5,10,10v33.7
		C970.9,492.7,966.4,497.1,960.9,497.1z"/>
	<path class="st17" d="M960.9,497.1H857.5c-5.5,0-10-4.5-10-10v-33.7c0-5.5,4.5-10,10-10h103.4c5.5,0,10,4.5,10,10v33.7
		C970.9,492.7,966.4,497.1,960.9,497.1z"/>
</g>
<g>
	<path class="st20" d="M185.7,967.8H82.3c-5.5,0-10-4.5-10-10v-33.7c0-5.5,4.5-10,10-10h103.4c5.5,0,10,4.5,10,10v33.7
		C195.7,963.3,191.2,967.8,185.7,967.8z"/>
	<path class="st21" d="M185.7,967.8H82.3c-5.5,0-10-4.5-10-10v-33.7c0-5.5,4.5-10,10-10h103.4c5.5,0,10,4.5,10,10v33.7
		C195.7,963.3,191.2,967.8,185.7,967.8z"/>
</g>
</svg>
