<?xml version="1.0" encoding="utf-8"?>
<!-- Generator: Adobe Illustrator 28.0.0, SVG Export Plug-In . SVG Version: 6.00 Build 0)  -->
<svg version="1.1" id="Livello_1" xmlns="http://www.w3.org/2000/svg" xmlns:xlink="http://www.w3.org/1999/xlink" x="0px" y="0px"
	 viewBox="0 0 680 680" style="enable-background:new 0 0 680 680;" xml:space="preserve">
<style type="text/css">
	.st0{fill:#96E6B3;}
	.st1{fill:#191923;}
	.st2{fill:#96E6B3;stroke:#191923;stroke-width:56.6929;stroke-linecap:round;stroke-miterlimit:10;}
	.st3{fill:none;stroke:#191923;stroke-width:45.3543;stroke-linecap:round;stroke-miterlimit:10;}
</style>
<g>
	<g>
		
			<ellipse transform="matrix(0.7071 -0.7071 0.7071 0.7071 -116.7761 292.2893)" class="st0" cx="294.4" cy="287.1" rx="191.9" ry="191.9"/>
		<path class="st1" d="M294.4,123.6c43.7,0,84.8,17,115.6,47.9s47.9,72,47.9,115.6s-17,84.8-47.9,115.6s-72,47.9-115.6,47.9
			s-84.8-17-115.6-47.9s-47.9-72-47.9-115.6s17-84.8,47.9-115.6S250.8,123.6,294.4,123.6 M294.4,66.9
			c-121.6,0-220.2,98.6-220.2,220.2s98.6,220.2,220.2,220.2s220.2-98.6,220.2-220.2S416.1,66.9,294.4,66.9L294.4,66.9z"/>
	</g>
	<path class="st1" d="M585,516.6L463.1,394.7L362.9,494.9l121.9,121.9c27.7,27.7,72.5,27.7,100.2,0l0,0
		C612.7,589.1,612.7,544.3,585,516.6z"/>
	<g>
		<path class="st2" d="M182.1,301l41.3,41.3c12.1,12.1,31.6,12.1,43.7,0l119.5-119.5"/>
	</g>
</g>
</svg>
